<?xml version="1.0" encoding="utf-8"?>
<!-- Generator: Adobe Illustrator 18.1.1, SVG Export Plug-In . SVG Version: 6.00 Build 0)  -->
<svg version="1.1" id="Layer_1" xmlns="http://www.w3.org/2000/svg" xmlns:xlink="http://www.w3.org/1999/xlink" x="0px" y="0px"
	 viewBox="0 0 800 240.7" enable-background="new 0 0 800 240.7" xml:space="preserve">
<g>
	<g>
		<path fill="#E22228" d="M564,47.1h-42.6c-1.2,0-2.1,1-2.1,2.1v24.6c0,1.2,1,2.1,2.1,2.1H564c1.2,0,2.1-1,2.1-2.1V49.3
			C566.1,48.1,565.1,47.1,564,47.1z"/>
		<path fill="#E22228" d="M563.2,83.8h-81.7c-1.2,0-2.4,0.9-2.7,2.1l-10.5,40.2v0l-0.5,2.1L455,85.5c-0.3-1.1-1.6-2.1-2.8-2.1h-31.8
			c-1.2,0-2.4,0.9-2.8,2.1l-11.9,40.2l0,0l-0.6,2.1l-0.5-2.1v0l-5.1-19.9l-5.1-19.9c-0.3-1.1-1.5-2.1-2.7-2.1h-64.2V49.3
			c0-1.2-1.5-2.4-2.8-1.9l-40.3,12.6c-1.2,0.4-2.1,1-2.1,2.1v21.8h-10.6c-1.2,0-2.1,1-2.1,2.1v30.6c0,1.2,1,2.1,2.1,2.1h10.6v37.5
			c0,26.5,14.4,38.9,41.1,38.9c11,0,21.8-2.4,28.9-6.2v-2.1c0,0,0-22.7,0-30c0-1.6-1.4-2.1-2.3-1.7c-4.3,1.9-7.7,2.3-11.5,2.3
			c-7.2,0-11-3-11-11.2v-27.5h23c1.2,0,2.1-1,2.1-2.1V90.7l30.2,100.8c0.3,1.1,1.6,2.1,2.8,2.1h33.4c1.2,0,2.4-0.9,2.8-2l14.3-44.7
			l7.3,23.3l6.6,21.3c0.4,1.1,1.6,2,2.8,2h33.6c1.2,0,2.4-0.9,2.8-2.1L520,90.5v101c0,1.2,1,2.1,2.1,2.1h41c1.2,0,2.1-1,2.1-2.1V86
			C565.3,84.8,564.3,83.8,563.2,83.8z"/>
		<path fill="#E22228" d="M617.1,47.1h-41c-1.2,0-2.1,1-2.1,2.1v142.2c0,1.2,1,2.1,2.1,2.1h41c1.2,0,2.1-1,2.1-2.1V49.3
			C619.3,48.1,618.3,47.1,617.1,47.1z"/>
		<path fill="#E22228" d="M671.9,47.1h-42.6c-1.2,0-2.1,1-2.1,2.1v24.6c0,1.2,1,2.1,2.1,2.1h42.6c1.2,0,2.1-1,2.1-2.1V49.3
			C674,48.1,673,47.1,671.9,47.1z"/>
		<path fill="#E22228" d="M671.1,83.8h-41c-1.2,0-2.1,1-2.1,2.1v105.5c0,1.2,1,2.1,2.1,2.1h41c1.2,0,2.1-1,2.1-2.1V86
			C673.2,84.8,672.2,83.8,671.1,83.8z"/>
		<path fill="#E22228" d="M738.9,81.2c-35.9,0-61.5,26.3-61.5,57.1v0.4c0,30.7,25.3,56.7,61.1,56.7c35.9,0,61.5-26.3,61.5-57.1v-0.4
			C800,107.2,774.7,81.2,738.9,81.2z M756.5,138.7c0,10.4-7.4,19-17.6,19c-10,0-18-8.6-18-19.4v-0.4c0-10.4,7.4-19,17.6-19
			c10,0,18,8.6,18,19.4V138.7z"/>
	</g>
	<g>
		<path fill="#E22228" d="M120.4,0C53.9,0,0,53.9,0,120.4c0,66.5,53.9,120.4,120.4,120.4c66.5,0,120.4-53.9,120.4-120.4
			C240.7,53.9,186.8,0,120.4,0z M120.4,209c-49,0-88.6-39.7-88.6-88.6c0-49,39.7-88.6,88.6-88.6c49,0,88.6,39.7,88.6,88.6
			C209,169.3,169.3,209,120.4,209z"/>
		<circle fill="#E22228" cx="150.3" cy="90.4" r="25"/>
		<circle fill="#E22228" cx="150.3" cy="150.3" r="25"/>
		<circle fill="#E22228" cx="90.4" cy="150.3" r="25"/>
		<circle fill="#E22228" cx="90.4" cy="90.4" r="25"/>
	</g>
</g>
</svg>
