<svg width="1366" height="673" xmlns="http://www.w3.org/2000/svg"><g><path d="M-25,-61L-80,93L79,47Z" fill="#fff7e6" stroke="#fff7e6"/><path d="M-25,-61L79,47L38,-80Z" fill="#fff6e9" stroke="#fff6e9"/><path d="M38,-80L79,47L154,-51Z" fill="#fff3e2" stroke="#fff3e2"/><path d="M38,-80L154,-51L276,-63Z" fill="#fff0da" stroke="#fff0da"/><path d="M38,-80L276,-63L891,-78Z" fill="#fee0c0" stroke="#fee0c0"/><path d="M38,-80L891,-78L1435,-77Z" fill="#f8b8a3" stroke="#f8b8a3"/><path d="M154,-51L79,47L192,21Z" fill="#fff0da" stroke="#fff0da"/><path d="M154,-51L192,21L276,-63Z" fill="#feedd4" stroke="#feedd4"/><path d="M276,-63L192,21L216,78Z" fill="#feebcf" stroke="#feebcf"/><path d="M276,-63L216,78L373,31Z" fill="#fee8c7" stroke="#fee8c7"/><path d="M276,-63L373,31L368,-14Z" fill="#fee6c5" stroke="#fee6c5"/><path d="M276,-63L368,-14L464,-11Z" fill="#fee3c3" stroke="#fee3c3"/><path d="M276,-63L464,-11L576,-56Z" fill="#feddbe" stroke="#feddbe"/><path d="M276,-63L576,-56L745,-65Z" fill="#fed4b7" stroke="#fed4b7"/><path d="M276,-63L745,-65L891,-78Z" fill="#fecab0" stroke="#fecab0"/><path d="M368,-14L373,31L464,-11Z" fill="#fee0c0" stroke="#fee0c0"/><path d="M464,-11L373,31L491,13Z" fill="#fedcba" stroke="#fedcba"/><path d="M464,-11L491,13L576,-56Z" fill="#fed6b9" stroke="#fed6b9"/><path d="M576,-56L491,13L545,24Z" fill="#fed4b7" stroke="#fed4b7"/><path d="M576,-56L545,24L615,1Z" fill="#fed0b4" stroke="#fed0b4"/><path d="M576,-56L615,1L700,-61Z" fill="#fecbb0" stroke="#fecbb0"/><path d="M576,-56L700,-61L745,-65Z" fill="#fec7ad" stroke="#fec7ad"/><path d="M700,-61L615,1L759,48Z" fill="#fdc5ac" stroke="#fdc5ac"/><path d="M700,-61L759,48L745,-65Z" fill="#fbbfa8" stroke="#fbbfa8"/><path d="M745,-65L759,48L870,2Z" fill="#f8b7a3" stroke="#f8b7a3"/><path d="M745,-65L870,2L891,-78Z" fill="#f5b29f" stroke="#f5b29f"/><path d="M891,-78L870,2L981,-11Z" fill="#f1a799" stroke="#f1a799"/><path d="M891,-78L981,-11L1053,-67Z" fill="#ee9e93" stroke="#ee9e93"/><path d="M891,-78L1053,-67L1435,-77Z" fill="#e68a87" stroke="#e68a87"/><path d="M981,-11L870,2L947,64Z" fill="#f0a492" stroke="#f0a492"/><path d="M981,-11L947,64L1065,45Z" fill="#ed9a89" stroke="#ed9a89"/><path d="M981,-11L1065,45L1053,-67Z" fill="#eb978f" stroke="#eb978f"/><path d="M1053,-67L1065,45L1132,12Z" fill="#e8908a" stroke="#e8908a"/><path d="M1053,-67L1132,12L1156,-44Z" fill="#e68c88" stroke="#e68c88"/><path d="M1053,-67L1156,-44L1244,-50Z" fill="#e48785" stroke="#e48785"/><path d="M1053,-67L1244,-50L1435,-77Z" fill="#df8080" stroke="#df8080"/><path d="M1156,-44L1132,12L1244,-50Z" fill="#e38382" stroke="#e38382"/><path d="M1244,-50L1132,12L1262,63Z" fill="#e17f7d" stroke="#e17f7d"/><path d="M1244,-50L1262,63L1379,-33Z" fill="#dd8080" stroke="#dd8080"/><path d="M1244,-50L1379,-33L1435,-77Z" fill="#d98080" stroke="#d98080"/><path d="M1379,-33L1262,63L1350,67Z" fill="#db7f77" stroke="#db7f77"/><path d="M1379,-33L1350,67L1409,26Z" fill="#d87f7a" stroke="#d87f7a"/><path d="M1379,-33L1409,26L1435,-77Z" fill="#d68080" stroke="#d68080"/><path d="M1435,-77L1409,26L1478,137Z" fill="#d57f78" stroke="#d57f78"/><path d="M-80,93L-60,514L-64,375Z" fill="#ffd2ab" stroke="#ffd2ab"/><path d="M-80,93L-64,375L-60,194Z" fill="#ffeabe" stroke="#ffeabe"/><path d="M-80,93L-60,194L28,160Z" fill="#fff4c8" stroke="#fff4c8"/><path d="M-80,93L28,160L79,47Z" fill="#fff4d0" stroke="#fff4d0"/><path d="M79,47L28,160L120,145Z" fill="#fff0c4" stroke="#fff0c4"/><path d="M79,47L120,145L216,78Z" fill="#ffedc4" stroke="#ffedc4"/><path d="M79,47L216,78L192,21Z" fill="#ffeecc" stroke="#ffeecc"/><path d="M216,78L120,145L238,192Z" fill="#fee9b1" stroke="#fee9b1"/><path d="M216,78L238,192L341,127Z" fill="#fee5aa" stroke="#fee5aa"/><path d="M216,78L341,127L373,31Z" fill="#fee4b3" stroke="#fee4b3"/><path d="M373,31L341,127L470,199Z" fill="#fedda1" stroke="#fedda1"/><path d="M373,31L470,199L491,13Z" fill="#fed9a7" stroke="#fed9a7"/><path d="M491,13L470,199L555,139Z" fill="#fed399" stroke="#fed399"/><path d="M491,13L555,139L545,24Z" fill="#fed2a7" stroke="#fed2a7"/><path d="M545,24L555,139L668,103Z" fill="#fecc9b" stroke="#fecc9b"/><path d="M545,24L668,103L615,1Z" fill="#fecca6" stroke="#fecca6"/><path d="M615,1L668,103L759,48Z" fill="#fec49f" stroke="#fec49f"/><path d="M759,48L668,103L796,123Z" fill="#fbbb8f" stroke="#fbbb8f"/><path d="M759,48L796,123L870,2Z" fill="#f7b392" stroke="#f7b392"/><path d="M870,2L796,123L947,64Z" fill="#f4ab8b" stroke="#f4ab8b"/><path d="M947,64L796,123L932,159Z" fill="#f2a67c" stroke="#f2a67c"/><path d="M947,64L932,159L1045,114Z" fill="#ee9b75" stroke="#ee9b75"/><path d="M947,64L1045,114L1065,45Z" fill="#ec967c" stroke="#ec967c"/><path d="M1065,45L1045,114L1194,111Z" fill="#e78a70" stroke="#e78a70"/><path d="M1065,45L1194,111L1132,12Z" fill="#e68777" stroke="#e68777"/><path d="M1132,12L1194,111L1262,63Z" fill="#e27e70" stroke="#e27e70"/><path d="M1262,63L1194,111L1272,122Z" fill="#df7c65" stroke="#df7c65"/><path d="M1262,63L1272,122L1325,102Z" fill="#dd7c66" stroke="#dd7c66"/><path d="M1262,63L1325,102L1350,67Z" fill="#dc7d6b" stroke="#dc7d6b"/><path d="M1350,67L1325,102L1478,137Z" fill="#d87c64" stroke="#d87c64"/><path d="M1350,67L1478,137L1409,26Z" fill="#d67d6b" stroke="#d67d6b"/><path d="M-60,194L-64,375L-20,223Z" fill="#ffdfb4" stroke="#ffdfb4"/><path d="M-60,194L-20,223L28,160Z" fill="#ffedbd" stroke="#ffedbd"/><path d="M28,160L-20,223L61,263Z" fill="#ffe6b4" stroke="#ffe6b4"/><path d="M28,160L61,263L120,145Z" fill="#ffeab3" stroke="#ffeab3"/><path d="M120,145L61,263L173,290Z" fill="#ffdda6" stroke="#ffdda6"/><path d="M120,145L173,290L238,192Z" fill="#fedfa3" stroke="#fedfa3"/><path d="M238,192L173,290L236,240Z" fill="#fed699" stroke="#fed699"/><path d="M238,192L236,240L302,286Z" fill="#fed494" stroke="#fed494"/><path d="M238,192L302,286L341,127Z" fill="#fedb97" stroke="#fedb97"/><path d="M341,127L302,286L459,206Z" fill="#fed58f" stroke="#fed58f"/><path d="M341,127L459,206L470,199Z" fill="#fed690" stroke="#fed690"/><path d="M470,199L459,206L519,219Z" fill="#feca86" stroke="#feca86"/><path d="M470,199L519,219L555,139Z" fill="#fecc88" stroke="#fecc88"/><path d="M555,139L519,219L665,228Z" fill="#fec482" stroke="#fec482"/><path d="M555,139L665,228L668,103Z" fill="#fec686" stroke="#fec686"/><path d="M668,103L665,228L796,123Z" fill="#fcbd81" stroke="#fcbd81"/><path d="M796,123L665,228L829,195Z" fill="#f9b275" stroke="#f9b275"/><path d="M796,123L829,195L932,159Z" fill="#f5aa73" stroke="#f5aa73"/><path d="M829,195L665,228L792,267Z" fill="#f9a76e" stroke="#f9a76e"/><path d="M829,195L792,267L832,279Z" fill="#f69c66" stroke="#f69c66"/><path d="M829,195L832,279L970,222Z" fill="#f39863" stroke="#f39863"/><path d="M829,195L970,222L932,159Z" fill="#f19c67" stroke="#f19c67"/><path d="M932,159L970,222L1045,114Z" fill="#ee9766" stroke="#ee9766"/><path d="M1045,114L970,222L1040,232Z" fill="#ec8e5f" stroke="#ec8e5f"/><path d="M1045,114L1040,232L1173,256Z" fill="#e88257" stroke="#e88257"/><path d="M1045,114L1173,256L1194,111Z" fill="#e5835a" stroke="#e5835a"/><path d="M1194,111L1173,256L1247,257Z" fill="#e1714b" stroke="#e1714b"/><path d="M1194,111L1247,257L1272,122Z" fill="#e07a54" stroke="#e07a54"/><path d="M1272,122L1247,257L1377,237Z" fill="#dc714c" stroke="#dc714c"/><path d="M1272,122L1377,237L1325,102Z" fill="#db7a56" stroke="#db7a56"/><path d="M1325,102L1377,237L1404,225Z" fill="#d9754f" stroke="#d9754f"/><path d="M1325,102L1404,225L1478,137Z" fill="#d77a56" stroke="#d77a56"/><path d="M1478,137L1404,225L1435,354Z" fill="#d56a46" stroke="#d56a46"/><path d="M1478,137L1435,354L1476,564Z" fill="#d34f32" stroke="#d34f32"/><path d="M-20,223L-64,375L3,303Z" fill="#ffd6ab" stroke="#ffd6ab"/><path d="M-20,223L3,303L61,263Z" fill="#ffdcad" stroke="#ffdcad"/><path d="M61,263L3,303L106,326Z" fill="#ffd2a2" stroke="#ffd2a2"/><path d="M61,263L106,326L173,290Z" fill="#ffd09c" stroke="#ffd09c"/><path d="M173,290L106,326L214,385Z" fill="#ffc48f" stroke="#ffc48f"/><path d="M173,290L214,385L302,286Z" fill="#fec48a" stroke="#fec48a"/><path d="M173,290L302,286L236,240Z" fill="#fece91" stroke="#fece91"/><path d="M302,286L214,385L385,352Z" fill="#febb7e" stroke="#febb7e"/><path d="M302,286L385,352L459,206Z" fill="#fec381" stroke="#fec381"/><path d="M459,206L385,352L448,331Z" fill="#febb7b" stroke="#febb7b"/><path d="M459,206L448,331L519,219Z" fill="#fec17f" stroke="#fec17f"/><path d="M519,219L448,331L560,314Z" fill="#feb677" stroke="#feb677"/><path d="M519,219L560,314L665,228Z" fill="#feb778" stroke="#feb778"/><path d="M665,228L560,314L648,305Z" fill="#feac6f" stroke="#feac6f"/><path d="M665,228L648,305L767,321Z" fill="#fda56a" stroke="#fda56a"/><path d="M665,228L767,321L792,267Z" fill="#fba168" stroke="#fba168"/><path d="M792,267L767,321L832,279Z" fill="#f89660" stroke="#f89660"/><path d="M832,279L767,321L889,351Z" fill="#f68b59" stroke="#f68b59"/><path d="M832,279L889,351L970,222Z" fill="#f28959" stroke="#f28959"/><path d="M970,222L889,351L940,355Z" fill="#f07f51" stroke="#f07f51"/><path d="M970,222L940,355L1040,232Z" fill="#ed8154" stroke="#ed8154"/><path d="M1040,232L940,355L1094,309Z" fill="#eb754b" stroke="#eb754b"/><path d="M1040,232L1094,309L1173,256Z" fill="#e7724a" stroke="#e7724a"/><path d="M1173,256L1094,309L1136,340Z" fill="#e56541" stroke="#e56541"/><path d="M1173,256L1136,340L1247,257Z" fill="#e36240" stroke="#e36240"/><path d="M1247,257L1136,340L1272,373Z" fill="#e15738" stroke="#e15738"/><path d="M1247,257L1272,373L1352,344Z" fill="#dd5737" stroke="#dd5737"/><path d="M1247,257L1352,344L1377,237Z" fill="#db613f" stroke="#db613f"/><path d="M1377,237L1352,344L1435,354Z" fill="#d85a3a" stroke="#d85a3a"/><path d="M1377,237L1435,354L1404,225Z" fill="#d76340" stroke="#d76340"/><path d="M-64,375L-60,514L-49,401Z" fill="#ffb095" stroke="#ffb095"/><path d="M-64,375L-49,401L3,303Z" fill="#ffc7a1" stroke="#ffc7a1"/><path d="M3,303L-49,401L106,326Z" fill="#ffc99e" stroke="#ffc99e"/><path d="M106,326L-49,401L39,477Z" fill="#ffb591" stroke="#ffb591"/><path d="M106,326L39,477L109,483Z" fill="#ffa985" stroke="#ffa985"/><path d="M106,326L109,483L214,385Z" fill="#ffb085" stroke="#ffb085"/><path d="M214,385L109,483L255,497Z" fill="#fe9b73" stroke="#fe9b73"/><path d="M214,385L255,497L342,475Z" fill="#fe986a" stroke="#fe986a"/><path d="M214,385L342,475L385,352Z" fill="#fea56f" stroke="#fea56f"/><path d="M385,352L342,475L470,422Z" fill="#fe9a66" stroke="#fe9a66"/><path d="M385,352L470,422L448,331Z" fill="#fea76d" stroke="#fea76d"/><path d="M448,331L470,422L560,314Z" fill="#fea66b" stroke="#fea66b"/><path d="M560,314L470,422L597,408Z" fill="#fe9963" stroke="#fe9963"/><path d="M560,314L597,408L648,305Z" fill="#fea067" stroke="#fea067"/><path d="M648,305L597,408L670,479Z" fill="#fe8b58" stroke="#fe8b58"/><path d="M648,305L670,479L767,321Z" fill="#fd8f5a" stroke="#fd8f5a"/><path d="M767,321L670,479L795,491Z" fill="#fa734a" stroke="#fa734a"/><path d="M767,321L795,491L841,465Z" fill="#f76d45" stroke="#f76d45"/><path d="M767,321L841,465L889,351Z" fill="#f6784d" stroke="#f6784d"/><path d="M889,351L841,465L973,463Z" fill="#f2603d" stroke="#f2603d"/><path d="M889,351L973,463L940,355Z" fill="#f06741" stroke="#f06741"/><path d="M940,355L973,463L1094,456Z" fill="#ec5235" stroke="#ec5235"/><path d="M940,355L1094,456L1094,309Z" fill="#ea5e3c" stroke="#ea5e3c"/><path d="M1094,309L1094,456L1136,340Z" fill="#e75637" stroke="#e75637"/><path d="M1136,340L1094,456L1198,420Z" fill="#e5462d" stroke="#e5462d"/><path d="M1136,340L1198,420L1272,373Z" fill="#e2472d" stroke="#e2472d"/><path d="M1272,373L1198,420L1230,420Z" fill="#e03e27" stroke="#e03e27"/><path d="M1272,373L1230,420L1327,494Z" fill="#de3622" stroke="#de3622"/><path d="M1272,373L1327,494L1352,344Z" fill="#db3e27" stroke="#db3e27"/><path d="M1352,344L1327,494L1428,414Z" fill="#d93a25" stroke="#d93a25"/><path d="M1352,344L1428,414L1435,354Z" fill="#d7492e" stroke="#d7492e"/><path d="M1435,354L1428,414L1476,564Z" fill="#d4311f" stroke="#d4311f"/><path d="M-49,401L-60,514L39,477Z" fill="#ffa38a" stroke="#ffa38a"/><path d="M39,477L-60,514L52,557Z" fill="#ff917c" stroke="#ff917c"/><path d="M39,477L52,557L109,483Z" fill="#ff9178" stroke="#ff9178"/><path d="M109,483L52,557L110,579Z" fill="#ff846e" stroke="#ff846e"/><path d="M109,483L110,579L255,497Z" fill="#ff876a" stroke="#ff876a"/><path d="M255,497L110,579L283,563Z" fill="#fe7c5e" stroke="#fe7c5e"/><path d="M255,497L283,563L342,475Z" fill="#fe835c" stroke="#fe835c"/><path d="M342,475L283,563L360,538Z" fill="#fe7c55" stroke="#fe7c55"/><path d="M342,475L360,538L470,422Z" fill="#fe875a" stroke="#fe875a"/><path d="M470,422L360,538L479,567Z" fill="#fe7950" stroke="#fe7950"/><path d="M470,422L479,567L513,524Z" fill="#fe754d" stroke="#fe754d"/><path d="M470,422L513,524L597,408Z" fill="#fe8355" stroke="#fe8355"/><path d="M597,408L513,524L647,538Z" fill="#fe7149" stroke="#fe7149"/><path d="M597,408L647,538L670,479Z" fill="#fe7148" stroke="#fe7148"/><path d="M670,479L647,538L766,547Z" fill="#fd5c3b" stroke="#fd5c3b"/><path d="M670,479L766,547L795,491Z" fill="#fa5a3a" stroke="#fa5a3a"/><path d="M795,491L766,547L890,519Z" fill="#f64d31" stroke="#f64d31"/><path d="M795,491L890,519L841,465Z" fill="#f55234" stroke="#f55234"/><path d="M841,465L890,519L973,463Z" fill="#f24d31" stroke="#f24d31"/><path d="M973,463L890,519L908,572Z" fill="#f13e28" stroke="#f13e28"/><path d="M973,463L908,572L971,634Z" fill="#ef2e1e" stroke="#ef2e1e"/><path d="M973,463L971,634L1081,542Z" fill="#ec291b" stroke="#ec291b"/><path d="M973,463L1081,542L1094,456Z" fill="#ea3724" stroke="#ea3724"/><path d="M1094,456L1081,542L1189,558Z" fill="#e62317" stroke="#e62317"/><path d="M1094,456L1189,558L1198,420Z" fill="#e42b1c" stroke="#e42b1c"/><path d="M1198,420L1189,558L1257,514Z" fill="#e11f14" stroke="#e11f14"/><path d="M1198,420L1257,514L1230,420Z" fill="#e02e1e" stroke="#e02e1e"/><path d="M1230,420L1257,514L1327,494Z" fill="#de2619" stroke="#de2619"/><path d="M1327,494L1257,514L1333,509Z" fill="#dc1c13" stroke="#dc1c13"/><path d="M1327,494L1333,509L1428,414Z" fill="#d92719" stroke="#d92719"/><path d="M1428,414L1333,509L1476,564Z" fill="#d62015" stroke="#d62015"/><path d="M-60,514L-52,645L52,557Z" fill="#ff8074" stroke="#ff8074"/><path d="M52,557L-52,645L98,613Z" fill="#ff7769" stroke="#ff7769"/><path d="M52,557L98,613L110,579Z" fill="#ff7665" stroke="#ff7665"/><path d="M110,579L98,613L134,699Z" fill="#ff7260" stroke="#ff7260"/><path d="M110,579L134,699L280,658Z" fill="#fe6f59" stroke="#fe6f59"/><path d="M110,579L280,658L283,563Z" fill="#fe6c53" stroke="#fe6c53"/><path d="M283,563L280,658L350,665Z" fill="#fe684a" stroke="#fe684a"/><path d="M283,563L350,665L360,538Z" fill="#fe6848" stroke="#fe6848"/><path d="M360,538L350,665L453,609Z" fill="#fe6242" stroke="#fe6242"/><path d="M360,538L453,609L479,567Z" fill="#fe6544" stroke="#fe6544"/><path d="M479,567L453,609L539,603Z" fill="#fe593b" stroke="#fe593b"/><path d="M479,567L539,603L513,524Z" fill="#fe5f3f" stroke="#fe5f3f"/><path d="M513,524L539,603L647,538Z" fill="#fe5e3d" stroke="#fe5e3d"/><path d="M647,538L539,603L690,691Z" fill="#fe4c31" stroke="#fe4c31"/><path d="M647,538L690,691L720,633Z" fill="#fe462d" stroke="#fe462d"/><path d="M647,538L720,633L766,547Z" fill="#fc492f" stroke="#fc492f"/><path d="M766,547L720,633L835,687Z" fill="#f93a25" stroke="#f93a25"/><path d="M766,547L835,687L908,572Z" fill="#f53220" stroke="#f53220"/><path d="M766,547L908,572L890,519Z" fill="#f43e28" stroke="#f43e28"/><path d="M908,572L835,687L971,634Z" fill="#f2291a" stroke="#f2291a"/><path d="M1081,542L971,634L1042,654Z" fill="#eb170f" stroke="#eb170f"/><path d="M1081,542L1042,654L1199,658Z" fill="#e70d09" stroke="#e70d09"/><path d="M1081,542L1199,658L1189,558Z" fill="#e40807" stroke="#e40807"/><path d="M1189,558L1199,658L1293,620Z" fill="#e00000" stroke="#e00000"/><path d="M1189,558L1293,620L1257,514Z" fill="#df0907" stroke="#df0907"/><path d="M1257,514L1293,620L1333,509Z" fill="#dd0f0a" stroke="#dd0f0a"/><path d="M1333,509L1293,620L1476,564Z" fill="#d90907" stroke="#d90907"/><path d="M1476,564L1293,620L1437,691Z" fill="#d70000" stroke="#d70000"/><path d="M-52,645L-20,784L96,715Z" fill="#ff786c" stroke="#ff786c"/><path d="M-52,645L96,715L98,613Z" fill="#ff7667" stroke="#ff7667"/><path d="M98,613L96,715L134,699Z" fill="#ff7260" stroke="#ff7260"/><path d="M134,699L96,715L152,733Z" fill="#ff725e" stroke="#ff725e"/><path d="M134,699L152,733L280,658Z" fill="#fe6e57" stroke="#fe6e57"/><path d="M280,658L152,733L219,794Z" fill="#fe6d54" stroke="#fe6d54"/><path d="M280,658L219,794L400,749Z" fill="#fe684a" stroke="#fe684a"/><path d="M280,658L400,749L350,665Z" fill="#fe6645" stroke="#fe6645"/><path d="M350,665L400,749L453,609Z" fill="#fe6141" stroke="#fe6141"/><path d="M453,609L400,749L459,784Z" fill="#fe5d3e" stroke="#fe5d3e"/><path d="M453,609L459,784L539,603Z" fill="#fe593b" stroke="#fe593b"/><path d="M539,603L459,784L567,798Z" fill="#fe5638" stroke="#fe5638"/><path d="M539,603L567,798L628,742Z" fill="#fe5034" stroke="#fe5034"/><path d="M539,603L628,742L690,691Z" fill="#fe4d31" stroke="#fe4d31"/><path d="M690,691L628,742L706,710Z" fill="#fe482d" stroke="#fe482d"/><path d="M690,691L706,710L720,633Z" fill="#fd442b" stroke="#fd442b"/><path d="M720,633L706,710L835,687Z" fill="#fa3d27" stroke="#fa3d27"/><path d="M835,687L706,710L871,716Z" fill="#f73622" stroke="#f73622"/><path d="M835,687L871,716L971,634Z" fill="#f22a1b" stroke="#f22a1b"/><path d="M971,634L871,716L1007,773Z" fill="#ef2216" stroke="#ef2216"/><path d="M971,634L1007,773L1042,654Z" fill="#ec1b11" stroke="#ec1b11"/><path d="M1042,654L1007,773L1103,709Z" fill="#ea150e" stroke="#ea150e"/><path d="M1042,654L1103,709L1199,658Z" fill="#e60c08" stroke="#e60c08"/><path d="M1199,658L1103,709L1297,773Z" fill="#e20001" stroke="#e20001"/><path d="M1199,658L1297,773L1332,692Z" fill="#de0000" stroke="#de0000"/><path d="M1199,658L1332,692L1293,620Z" fill="#de0000" stroke="#de0000"/><path d="M1293,620L1332,692L1437,691Z" fill="#d90000" stroke="#d90000"/><path d="M1332,692L1297,773L1329,763Z" fill="#db0000" stroke="#db0000"/><path d="M1332,692L1329,763L1405,765Z" fill="#d90000" stroke="#d90000"/><path d="M1332,692L1405,765L1437,691Z" fill="#d70000" stroke="#d70000"/><path d="M-20,784L219,794L152,733Z" fill="#ff725f" stroke="#ff725f"/><path d="M-20,784L152,733L96,715Z" fill="#ff7464" stroke="#ff7464"/><path d="M219,794L567,798L459,784Z" fill="#fe5f40" stroke="#fe5f40"/><path d="M219,794L459,784L400,749Z" fill="#fe6544" stroke="#fe6544"/><path d="M567,798L959,798L706,710Z" fill="#fa3e28" stroke="#fa3e28"/><path d="M567,798L706,710L628,742Z" fill="#fe4b30" stroke="#fe4b30"/><path d="M706,710L959,798L871,716Z" fill="#f5311f" stroke="#f5311f"/><path d="M871,716L959,798L1007,773Z" fill="#f02316" stroke="#f02316"/><path d="M959,798L1297,773L1007,773Z" fill="#e8100a" stroke="#e8100a"/><path d="M1007,773L1297,773L1103,709Z" fill="#e50906" stroke="#e50906"/><path d="M1297,773L1405,765L1329,763Z" fill="#da0000" stroke="#da0000"/></g></svg>