<svg xmlns="http://www.w3.org/2000/svg" width="1920" height="1080"><path d="M160,-233L548,-214L880,-255Z" fill="#ffdf90" stroke="#ffdf90" stroke-width="1.51"/><path d="M-112,-266L160,-233L880,-255Z" fill="#ffeca1" stroke="#ffeca1" stroke-width="1.51"/><path d="M541,1318L293,1339L1164,1329Z" fill="#c46439" stroke="#c46439" stroke-width="1.51"/><path d="M880,-255L1074,-229L1453,-235Z" fill="#ffb678" stroke="#ffb678" stroke-width="1.51"/><path d="M1453,-235L1650,-220L1792,-241Z" fill="#f7986c" stroke="#f7986c" stroke-width="1.51"/><path d="M1164,1329L293,1339L1794,1344Z" fill="#c1432f" stroke="#c1432f" stroke-width="1.51"/><path d="M1369,1267L1164,1329L1794,1344Z" fill="#bd1c25" stroke="#bd1c25" stroke-width="1.51"/><path d="M-112,-266L880,-255L1942,-266Z" fill="#ffc983" stroke="#ffc983" stroke-width="1.51"/><path d="M1453,-235L1792,-241L1942,-266Z" fill="#f0966e" stroke="#f0966e" stroke-width="1.51"/><path d="M880,-255L1453,-235L1942,-266Z" fill="#ffa370" stroke="#ffa370" stroke-width="1.51"/><path d="M1969,354L2080,426L2103,185Z" fill="#cb673a" stroke="#cb673a" stroke-width="1.51"/><path d="M1963,235L1969,354L2103,185Z" fill="#d06f40" stroke="#d06f40" stroke-width="1.51"/><path d="M1981,975L2086,1006L2108,796Z" fill="#bc1323" stroke="#bc1323" stroke-width="1.51"/><path d="M1927,788L1981,975L2108,796Z" fill="#c62026" stroke="#c62026" stroke-width="1.51"/><path d="M2086,1006L2095,1136L2108,796Z" fill="#b50a23" stroke="#b50a23" stroke-width="1.51"/><path d="M1962,483L1879,746L2119,699Z" fill="#cf432d" stroke="#cf432d" stroke-width="1.51"/><path d="M1879,746L1927,788L2119,699Z" fill="#d02f29" stroke="#d02f29" stroke-width="1.51"/><path d="M2080,486L1962,483L2119,699Z" fill="#c94f31" stroke="#c94f31" stroke-width="1.51"/><path d="M2103,185L2080,426L2119,699Z" fill="#c55b36" stroke="#c55b36" stroke-width="1.51"/><path d="M2080,426L2080,486L2119,699Z" fill="#c45132" stroke="#c45132" stroke-width="1.51"/><path d="M1927,788L2108,796L2119,699Z" fill="#c72b29" stroke="#c72b29" stroke-width="1.51"/><path d="M2108,796L2095,1136L2119,699Z" fill="#ba1a25" stroke="#ba1a25" stroke-width="1.51"/><path d="M2074,-68L1978,-68L2120,75Z" fill="#ce8159" stroke="#ce8159" stroke-width="1.51"/><path d="M1978,-68L1903,84L2120,75Z" fill="#d48155" stroke="#d48155" stroke-width="1.51"/><path d="M1903,84L2103,185L2120,75Z" fill="#ce7b4d" stroke="#ce7b4d" stroke-width="1.51"/><path d="M2103,-182L2074,-68L2120,75Z" fill="#ca815d" stroke="#ca815d" stroke-width="1.51"/><path d="M2103,185L2119,699L2120,75Z" fill="#c4653b" stroke="#c4653b" stroke-width="1.51"/><path d="M1901,1259L1794,1344L2030,1275Z" fill="#a40026" stroke="#a40026" stroke-width="1.51"/><path d="M2086,1006L1981,975L2095,1136Z" fill="#b40724" stroke="#b40724" stroke-width="1.51"/><path d="M1981,975L1895,1124L2095,1136Z" fill="#b70525" stroke="#b70525" stroke-width="1.51"/><path d="M1903,84L1963,235L2103,185Z" fill="#d37848" stroke="#d37848" stroke-width="1.51"/><path d="M1978,-68L2074,-68L2103,-182Z" fill="#d08562" stroke="#d08562" stroke-width="1.51"/><path d="M1942,-266L1978,-68L2103,-182Z" fill="#d68a68" stroke="#d68a68" stroke-width="1.51"/><path d="M1895,1124L2030,1275L2095,1136Z" fill="#ab0026" stroke="#ab0026" stroke-width="1.51"/><path d="M2080,426L1962,483L2080,486Z" fill="#cb5a35" stroke="#cb5a35" stroke-width="1.51"/><path d="M931,1288L541,1318L1164,1329Z" fill="#c65634" stroke="#c65634" stroke-width="1.51"/><path d="M1969,354L1962,483L2080,426Z" fill="#cf5f36" stroke="#cf5f36" stroke-width="1.51"/><path d="M1895,1124L1901,1259L2030,1275Z" fill="#ab0026" stroke="#ab0026" stroke-width="1.51"/><path d="M1814,706L1879,746L1962,483Z" fill="#da452d" stroke="#da452d" stroke-width="1.51"/><path d="M1758,589L1814,706L1962,483Z" fill="#de4f2f" stroke="#de4f2f" stroke-width="1.51"/><path d="M1764,404L1962,483L1969,354Z" fill="#db6336" stroke="#db6336" stroke-width="1.51"/><path d="M1963,235L1789,230L1969,354Z" fill="#db713e" stroke="#db713e" stroke-width="1.51"/><path d="M1746,-29L1903,84L1978,-68Z" fill="#e38758" stroke="#e38758" stroke-width="1.51"/><path d="M1942,-266L1792,-241L1978,-68Z" fill="#e28f6a" stroke="#e28f6a" stroke-width="1.51"/><path d="M1792,-241L1746,-29L1978,-68Z" fill="#e78d62" stroke="#e78d62" stroke-width="1.51"/><path d="M1927,788L1838,844L1981,975Z" fill="#cf1e25" stroke="#cf1e25" stroke-width="1.51"/><path d="M1838,844L1834,951L1981,975Z" fill="#cf1523" stroke="#cf1523" stroke-width="1.51"/><path d="M1834,951L1895,1124L1981,975Z" fill="#c50923" stroke="#c50923" stroke-width="1.51"/><path d="M1903,84L1789,230L1963,235Z" fill="#df7b46" stroke="#df7b46" stroke-width="1.51"/><path d="M1661,1271L1369,1267L1794,1344Z" fill="#b80b23" stroke="#b80b23" stroke-width="1.51"/><path d="M1801,110L1789,230L1903,84Z" fill="#e48149" stroke="#e48149" stroke-width="1.51"/><path d="M1789,230L1764,404L1969,354Z" fill="#e16d39" stroke="#e16d39" stroke-width="1.51"/><path d="M1764,404L1758,589L1962,483Z" fill="#e05d32" stroke="#e05d32" stroke-width="1.51"/><path d="M1834,951L1769,1113L1895,1124Z" fill="#c70724" stroke="#c70724" stroke-width="1.51"/><path d="M1746,-29L1801,110L1903,84Z" fill="#e68652" stroke="#e68652" stroke-width="1.51"/><path d="M1879,746L1838,844L1927,788Z" fill="#d72a27" stroke="#d72a27" stroke-width="1.51"/><path d="M1895,1124L1769,1113L1901,1259Z" fill="#bc0026" stroke="#bc0026" stroke-width="1.51"/><path d="M1769,1113L1794,1344L1901,1259Z" fill="#b30126" stroke="#b30126" stroke-width="1.51"/><path d="M1769,1113L1661,1271L1794,1344Z" fill="#b80525" stroke="#b80525" stroke-width="1.51"/><path d="M1814,706L1838,844L1879,746Z" fill="#dc2e28" stroke="#dc2e28" stroke-width="1.51"/><path d="M1539,1236L1369,1267L1661,1271Z" fill="#c21323" stroke="#c21323" stroke-width="1.51"/><path d="M1650,-220L1746,-29L1792,-241Z" fill="#ef9265" stroke="#ef9265" stroke-width="1.51"/><path d="M1651,968L1769,1113L1834,951Z" fill="#d10f21" stroke="#d10f21" stroke-width="1.51"/><path d="M1814,706L1639,789L1838,844Z" fill="#e02e26" stroke="#e02e26" stroke-width="1.51"/><path d="M1651,968L1834,951L1838,844Z" fill="#d71921" stroke="#d71921" stroke-width="1.51"/><path d="M1639,789L1651,968L1838,844Z" fill="#de2422" stroke="#de2422" stroke-width="1.51"/><path d="M1746,-29L1683,34L1801,110Z" fill="#ec8952" stroke="#ec8952" stroke-width="1.51"/><path d="M1650,-220L1666,-41L1746,-29Z" fill="#f1915f" stroke="#f1915f" stroke-width="1.51"/><path d="M1651,427L1758,589L1764,404Z" fill="#e76231" stroke="#e76231" stroke-width="1.51"/><path d="M1633,262L1764,404L1789,230Z" fill="#e97439" stroke="#e97439" stroke-width="1.51"/><path d="M1758,589L1608,663L1814,706Z" fill="#e6472a" stroke="#e6472a" stroke-width="1.51"/><path d="M1608,663L1639,789L1814,706Z" fill="#e83b26" stroke="#e83b26" stroke-width="1.51"/><path d="M1651,427L1627,554L1758,589Z" fill="#ea5e2e" stroke="#ea5e2e" stroke-width="1.51"/><path d="M1649,1121L1661,1271L1769,1113Z" fill="#c60824" stroke="#c60824" stroke-width="1.51"/><path d="M1633,262L1789,230L1801,110Z" fill="#e97d43" stroke="#e97d43" stroke-width="1.51"/><path d="M1683,34L1633,262L1801,110Z" fill="#ec8548" stroke="#ec8548" stroke-width="1.51"/><path d="M1651,968L1649,1121L1769,1113Z" fill="#d00f22" stroke="#d00f22" stroke-width="1.51"/><path d="M1633,262L1651,427L1764,404Z" fill="#eb6e34" stroke="#eb6e34" stroke-width="1.51"/><path d="M1627,554L1608,663L1758,589Z" fill="#ea522a" stroke="#ea522a" stroke-width="1.51"/><path d="M1666,-41L1683,34L1746,-29Z" fill="#ef8c56" stroke="#ef8c56" stroke-width="1.51"/><path d="M1508,1098L1649,1121L1651,968Z" fill="#d61220" stroke="#d61220" stroke-width="1.51"/><path d="M1639,789L1534,857L1651,968Z" fill="#e5271f" stroke="#e5271f" stroke-width="1.51"/><path d="M1649,1121L1539,1236L1661,1271Z" fill="#c50b23" stroke="#c50b23" stroke-width="1.51"/><path d="M1650,-220L1443,-69L1666,-41Z" fill="#f8955e" stroke="#f8955e" stroke-width="1.51"/><path d="M1431,146L1467,194L1683,34Z" fill="#f88c48" stroke="#f88c48" stroke-width="1.51"/><path d="M1666,-41L1443,-69L1683,34Z" fill="#f69056" stroke="#f69056" stroke-width="1.51"/><path d="M1443,-69L1431,146L1683,34Z" fill="#f99151" stroke="#f99151" stroke-width="1.51"/><path d="M1467,194L1633,262L1683,34Z" fill="#f48544" stroke="#f48544" stroke-width="1.51"/><path d="M1453,-235L1443,-69L1650,-220Z" fill="#fd9b66" stroke="#fd9b66" stroke-width="1.51"/><path d="M1633,262L1459,392L1651,427Z" fill="#f17132" stroke="#f17132" stroke-width="1.51"/><path d="M1483,1031L1508,1098L1651,968Z" fill="#dc171f" stroke="#dc171f" stroke-width="1.51"/><path d="M1473,537L1627,554L1651,427Z" fill="#f0622d" stroke="#f0622d" stroke-width="1.51"/><path d="M1508,1098L1539,1236L1649,1121Z" fill="#d00f22" stroke="#d00f22" stroke-width="1.51"/><path d="M1459,392L1473,537L1651,427Z" fill="#f46a2f" stroke="#f46a2f" stroke-width="1.51"/><path d="M1534,857L1483,1031L1651,968Z" fill="#e31b1c" stroke="#e31b1c" stroke-width="1.51"/><path d="M1608,663L1448,687L1639,789Z" fill="#ef4024" stroke="#ef4024" stroke-width="1.51"/><path d="M1448,687L1534,857L1639,789Z" fill="#ef3622" stroke="#ef3622" stroke-width="1.51"/><path d="M1473,537L1608,663L1627,554Z" fill="#f05729" stroke="#f05729" stroke-width="1.51"/><path d="M1467,194L1459,392L1633,262Z" fill="#f57c39" stroke="#f57c39" stroke-width="1.51"/><path d="M1074,-229L1334,-187L1453,-235Z" fill="#ffa971" stroke="#ffa971" stroke-width="1.51"/><path d="M1473,537L1448,687L1608,663Z" fill="#f25329" stroke="#f25329" stroke-width="1.51"/><path d="M160,-233L328,-209L548,-214Z" fill="#ffe99b" stroke="#ffe99b" stroke-width="1.51"/><path d="M1372,797L1291,977L1483,1031Z" fill="#ec3020" stroke="#ec3020" stroke-width="1.51"/><path d="M1372,797L1483,1031L1534,857Z" fill="#ea2e20" stroke="#ea2e20" stroke-width="1.51"/><path d="M1448,687L1372,797L1534,857Z" fill="#f23d24" stroke="#f23d24" stroke-width="1.51"/><path d="M1508,1098L1369,1267L1539,1236Z" fill="#cd1a24" stroke="#cd1a24" stroke-width="1.51"/><path d="M1356,141L1431,146L1443,-69Z" fill="#fd9550" stroke="#fd9550" stroke-width="1.51"/><path d="M1376,-103L1443,-69L1453,-235Z" fill="#ff9e64" stroke="#ff9e64" stroke-width="1.51"/><path d="M1307,240L1459,392L1467,194Z" fill="#fa833c" stroke="#fa833c" stroke-width="1.51"/><path d="M1368,574L1448,687L1473,537Z" fill="#f65d2c" stroke="#f65d2c" stroke-width="1.51"/><path d="M1459,392L1389,444L1473,537Z" fill="#f76f31" stroke="#f76f31" stroke-width="1.51"/><path d="M1483,1031L1326,1104L1508,1098Z" fill="#dc2322" stroke="#dc2322" stroke-width="1.51"/><path d="M1326,1104L1369,1267L1508,1098Z" fill="#d62425" stroke="#d62425" stroke-width="1.51"/><path d="M1074,-229L1166,-180L1334,-187Z" fill="#ffaf72" stroke="#ffaf72" stroke-width="1.51"/><path d="M1334,-187L1376,-103L1453,-235Z" fill="#ffa16a" stroke="#ffa16a" stroke-width="1.51"/><path d="M1291,977L1326,1104L1483,1031Z" fill="#e32c23" stroke="#e32c23" stroke-width="1.51"/><path d="M1376,-103L1356,141L1443,-69Z" fill="#ff9a59" stroke="#ff9a59" stroke-width="1.51"/><path d="M1307,240L1389,444L1459,392Z" fill="#fa7c36" stroke="#fa7c36" stroke-width="1.51"/><path d="M1389,444L1368,574L1473,537Z" fill="#f76a30" stroke="#f76a30" stroke-width="1.51"/><path d="M1431,146L1356,141L1467,194Z" fill="#fb8e47" stroke="#fb8e47" stroke-width="1.51"/><path d="M1356,141L1307,240L1467,194Z" fill="#fc8d45" stroke="#fc8d45" stroke-width="1.51"/><path d="M1337,679L1372,797L1448,687Z" fill="#f74a28" stroke="#f74a28" stroke-width="1.51"/><path d="M1368,574L1337,679L1448,687Z" fill="#f8582b" stroke="#f8582b" stroke-width="1.51"/><path d="M1307,240L1226,337L1389,444Z" fill="#fd8239" stroke="#fd8239" stroke-width="1.51"/><path d="M1166,91L1356,141L1376,-103Z" fill="#ff9c56" stroke="#ff9c56" stroke-width="1.51"/><path d="M1326,1104L1206,1175L1369,1267Z" fill="#d72c28" stroke="#d72c28" stroke-width="1.51"/><path d="M1189,867L1291,977L1372,797Z" fill="#f33f25" stroke="#f33f25" stroke-width="1.51"/><path d="M1139,-69L1166,91L1376,-103Z" fill="#ffa460" stroke="#ffa460" stroke-width="1.51"/><path d="M1172,582L1368,574L1389,444Z" fill="#fb6e32" stroke="#fb6e32" stroke-width="1.51"/><path d="M1226,337L1172,582L1389,444Z" fill="#fe7936" stroke="#fe7936" stroke-width="1.51"/><path d="M1337,679L1184,741L1372,797Z" fill="#fb4d29" stroke="#fb4d29" stroke-width="1.51"/><path d="M1334,-187L1139,-69L1376,-103Z" fill="#ffa567" stroke="#ffa567" stroke-width="1.51"/><path d="M1166,-180L1139,-69L1334,-187Z" fill="#ffab6c" stroke="#ffab6c" stroke-width="1.51"/><path d="M1172,582L1337,679L1368,574Z" fill="#fb632e" stroke="#fb632e" stroke-width="1.51"/><path d="M1184,741L1189,867L1372,797Z" fill="#f94a28" stroke="#f94a28" stroke-width="1.51"/><path d="M1189,867L1207,944L1291,977Z" fill="#f14025" stroke="#f14025" stroke-width="1.51"/><path d="M1206,1175L1164,1329L1369,1267Z" fill="#cd302a" stroke="#cd302a" stroke-width="1.51"/><path d="M1239,197L1307,240L1356,141Z" fill="#ff9147" stroke="#ff9147" stroke-width="1.51"/><path d="M1166,91L1239,197L1356,141Z" fill="#ff994d" stroke="#ff994d" stroke-width="1.51"/><path d="M1172,582L1184,741L1337,679Z" fill="#fd5f2e" stroke="#fd5f2e" stroke-width="1.51"/><path d="M1291,977L1206,1175L1326,1104Z" fill="#e23226" stroke="#e23226" stroke-width="1.51"/><path d="M1207,944L1206,1175L1291,977Z" fill="#e83926" stroke="#e83926" stroke-width="1.51"/><path d="M1239,197L1226,337L1307,240Z" fill="#ff8d42" stroke="#ff8d42" stroke-width="1.51"/><path d="M-112,-266L-30,-249L160,-233Z" fill="#fff6b6" stroke="#fff6b6" stroke-width="1.51"/><path d="M548,-214L747,-218L880,-255Z" fill="#ffd284" stroke="#ffd284" stroke-width="1.51"/><path d="M1075,373L1082,544L1172,582Z" fill="#fd8339" stroke="#fd8339" stroke-width="1.51"/><path d="M1071,1107L1206,1175L1207,944Z" fill="#e54229" stroke="#e54229" stroke-width="1.51"/><path d="M1075,373L1172,582L1226,337Z" fill="#fe853a" stroke="#fe853a" stroke-width="1.51"/><path d="M1139,-69L1088,-19L1166,91Z" fill="#ffab60" stroke="#ffab60" stroke-width="1.51"/><path d="M1074,1236L1164,1329L1206,1175Z" fill="#cf3e2c" stroke="#cf3e2c" stroke-width="1.51"/><path d="M1166,91L993,190L1239,197Z" fill="#ffa250" stroke="#ffa250" stroke-width="1.51"/><path d="M1075,373L1226,337L1239,197Z" fill="#ff8f40" stroke="#ff8f40" stroke-width="1.51"/><path d="M993,190L1075,373L1239,197Z" fill="#ff9b47" stroke="#ff9b47" stroke-width="1.51"/><path d="M1172,582L1005,670L1184,741Z" fill="#fd6c31" stroke="#fd6c31" stroke-width="1.51"/><path d="M1184,741L1018,855L1189,867Z" fill="#f8572b" stroke="#f8572b" stroke-width="1.51"/><path d="M1001,1031L1071,1107L1207,944Z" fill="#e94d2a" stroke="#e94d2a" stroke-width="1.51"/><path d="M1189,867L1018,855L1207,944Z" fill="#f45028" stroke="#f45028" stroke-width="1.51"/><path d="M1018,855L1001,1031L1207,944Z" fill="#f15328" stroke="#f15328" stroke-width="1.51"/><path d="M1071,1107L1074,1236L1206,1175Z" fill="#db452c" stroke="#db452c" stroke-width="1.51"/><path d="M1088,-19L1065,44L1166,91Z" fill="#ffac5d" stroke="#ffac5d" stroke-width="1.51"/><path d="M1082,544L1005,670L1172,582Z" fill="#fd7935" stroke="#fd7935" stroke-width="1.51"/><path d="M1005,670L1018,855L1184,741Z" fill="#fc642f" stroke="#fc642f" stroke-width="1.51"/><path d="M1065,44L993,190L1166,91Z" fill="#ffab57" stroke="#ffab57" stroke-width="1.51"/><path d="M1074,-229L1139,-69L1166,-180Z" fill="#ffb370" stroke="#ffb370" stroke-width="1.51"/><path d="M1074,1236L931,1288L1164,1329Z" fill="#c9482f" stroke="#c9482f" stroke-width="1.51"/><path d="M694,1256L541,1318L931,1288Z" fill="#cb6238" stroke="#cb6238" stroke-width="1.51"/><path d="M1074,-229L1088,-19L1139,-69Z" fill="#ffb36c" stroke="#ffb36c" stroke-width="1.51"/><path d="M934,979L1001,1031L1018,855Z" fill="#f15d2a" stroke="#f15d2a" stroke-width="1.51"/><path d="M1005,670L906,740L1018,855Z" fill="#fd6e32" stroke="#fd6e32" stroke-width="1.51"/><path d="M853,1122L931,1288L1071,1107Z" fill="#dc5731" stroke="#dc5731" stroke-width="1.51"/><path d="M1071,1107L931,1288L1074,1236Z" fill="#d54e2f" stroke="#d54e2f" stroke-width="1.51"/><path d="M993,190L927,355L1075,373Z" fill="#fe9f46" stroke="#fe9f46" stroke-width="1.51"/><path d="M1075,373L927,355L1082,544Z" fill="#fe913e" stroke="#fe913e" stroke-width="1.51"/><path d="M927,355L861,570L1082,544Z" fill="#fd923e" stroke="#fd923e" stroke-width="1.51"/><path d="M1074,-229L884,-102L1088,-19Z" fill="#ffbb70" stroke="#ffbb70" stroke-width="1.51"/><path d="M884,-102L1065,44L1088,-19Z" fill="#ffb767" stroke="#ffb767" stroke-width="1.51"/><path d="M880,-255L884,-102L1074,-229Z" fill="#ffc47b" stroke="#ffc47b" stroke-width="1.51"/><path d="M861,570L1005,670L1082,544Z" fill="#fd8439" stroke="#fd8439" stroke-width="1.51"/><path d="M877,110L993,190L1065,44Z" fill="#ffb35a" stroke="#ffb35a" stroke-width="1.51"/><path d="M1001,1031L853,1122L1071,1107Z" fill="#e4582f" stroke="#e4582f" stroke-width="1.51"/><path d="M884,-102L877,110L1065,44Z" fill="#ffba65" stroke="#ffba65" stroke-width="1.51"/><path d="M885,262L927,355L993,190Z" fill="#ffa74b" stroke="#ffa74b" stroke-width="1.51"/><path d="M892,841L934,979L1018,855Z" fill="#f5652e" stroke="#f5652e" stroke-width="1.51"/><path d="M906,740L892,841L1018,855Z" fill="#f96d30" stroke="#f96d30" stroke-width="1.51"/><path d="M934,979L853,1122L1001,1031Z" fill="#e95e2f" stroke="#e95e2f" stroke-width="1.51"/><path d="M861,570L906,740L1005,670Z" fill="#fd7f37" stroke="#fd7f37" stroke-width="1.51"/><path d="M877,110L885,262L993,190Z" fill="#ffb154" stroke="#ffb154" stroke-width="1.51"/><path d="M750,82L877,110L884,-102Z" fill="#ffbf66" stroke="#ffbf66" stroke-width="1.51"/><path d="M861,570L786,728L906,740Z" fill="#fe8139" stroke="#fe8139" stroke-width="1.51"/><path d="M724,433L861,570L927,355Z" fill="#fe9d43" stroke="#fe9d43" stroke-width="1.51"/><path d="M853,1122L694,1256L931,1288Z" fill="#d55e35" stroke="#d55e35" stroke-width="1.51"/><path d="M704,966L853,1122L934,979Z" fill="#ec6630" stroke="#ec6630" stroke-width="1.51"/><path d="M892,841L791,822L934,979Z" fill="#f66b30" stroke="#f66b30" stroke-width="1.51"/><path d="M791,822L704,966L934,979Z" fill="#f46d30" stroke="#f46d30" stroke-width="1.51"/><path d="M771,-112L750,82L884,-102Z" fill="#ffc66f" stroke="#ffc66f" stroke-width="1.51"/><path d="M885,262L724,433L927,355Z" fill="#fea546" stroke="#fea546" stroke-width="1.51"/><path d="M747,-218L771,-112L880,-255Z" fill="#ffcc7f" stroke="#ffcc7f" stroke-width="1.51"/><path d="M880,-255L771,-112L884,-102Z" fill="#ffc87a" stroke="#ffc87a" stroke-width="1.51"/><path d="M877,110L742,207L885,262Z" fill="#ffb556" stroke="#ffb556" stroke-width="1.51"/><path d="M791,822L892,841L906,740Z" fill="#fb7333" stroke="#fb7333" stroke-width="1.51"/><path d="M786,728L791,822L906,740Z" fill="#fd7935" stroke="#fd7935" stroke-width="1.51"/><path d="M740,582L786,728L861,570Z" fill="#fe8c3c" stroke="#fe8c3c" stroke-width="1.51"/><path d="M742,207L724,433L885,262Z" fill="#feae4c" stroke="#feae4c" stroke-width="1.51"/><path d="M704,966L685,1099L853,1122Z" fill="#e86a33" stroke="#e86a33" stroke-width="1.51"/><path d="M724,433L740,582L861,570Z" fill="#fe9a41" stroke="#fe9a41" stroke-width="1.51"/><path d="M750,82L742,207L877,110Z" fill="#ffbd5d" stroke="#ffbd5d" stroke-width="1.51"/><path d="M685,1099L694,1256L853,1122Z" fill="#df6736" stroke="#df6736" stroke-width="1.51"/><path d="M623,357L724,433L742,207Z" fill="#feb04b" stroke="#feb04b" stroke-width="1.51"/><path d="M548,-10L750,82L771,-112Z" fill="#ffcb6f" stroke="#ffcb6f" stroke-width="1.51"/><path d="M740,582L634,743L786,728Z" fill="#ff8a3c" stroke="#ff8a3c" stroke-width="1.51"/><path d="M786,728L634,743L791,822Z" fill="#fe7e38" stroke="#fe7e38" stroke-width="1.51"/><path d="M634,743L704,966L791,822Z" fill="#f97a35" stroke="#f97a35" stroke-width="1.51"/><path d="M685,1099L622,1184L694,1256Z" fill="#dc6b38" stroke="#dc6b38" stroke-width="1.51"/><path d="M606,593L634,743L740,582Z" fill="#fe933f" stroke="#fe933f" stroke-width="1.51"/><path d="M621,134L742,207L750,82Z" fill="#ffc25f" stroke="#ffc25f" stroke-width="1.51"/><path d="M747,-218L548,-214L771,-112Z" fill="#ffd280" stroke="#ffd280" stroke-width="1.51"/><path d="M548,-214L548,-10L771,-112Z" fill="#ffd37c" stroke="#ffd37c" stroke-width="1.51"/><path d="M634,743L536,827L704,966Z" fill="#fa8039" stroke="#fa8039" stroke-width="1.51"/><path d="M724,433L606,593L740,582Z" fill="#fe9e43" stroke="#fe9e43" stroke-width="1.51"/><path d="M575,200L623,357L742,207Z" fill="#ffbb55" stroke="#ffbb55" stroke-width="1.51"/><path d="M548,-10L621,134L750,82Z" fill="#ffca69" stroke="#ffca69" stroke-width="1.51"/><path d="M621,134L575,200L742,207Z" fill="#fec25d" stroke="#fec25d" stroke-width="1.51"/><path d="M490,494L606,593L623,357Z" fill="#ffab4c" stroke="#ffab4c" stroke-width="1.51"/><path d="M623,357L606,593L724,433Z" fill="#fea747" stroke="#fea747" stroke-width="1.51"/><path d="M548,-214L484,-93L548,-10Z" fill="#ffd983" stroke="#ffd983" stroke-width="1.51"/><path d="M531,1012L685,1099L704,966Z" fill="#ec7336" stroke="#ec7336" stroke-width="1.51"/><path d="M536,827L531,1012L704,966Z" fill="#f57b38" stroke="#f57b38" stroke-width="1.51"/><path d="M622,1184L541,1318L694,1256Z" fill="#d16b3b" stroke="#d16b3b" stroke-width="1.51"/><path d="M531,1012L622,1184L685,1099Z" fill="#e6723a" stroke="#e6723a" stroke-width="1.51"/><path d="M487,-157L484,-93L548,-214Z" fill="#ffdd89" stroke="#ffdd89" stroke-width="1.51"/><path d="M531,1012L461,1169L622,1184Z" fill="#e5773f" stroke="#e5773f" stroke-width="1.51"/><path d="M575,200L449,289L623,357Z" fill="#ffbf5a" stroke="#ffbf5a" stroke-width="1.51"/><path d="M606,593L487,682L634,743Z" fill="#ff9443" stroke="#ff9443" stroke-width="1.51"/><path d="M487,682L536,827L634,743Z" fill="#ff8c41" stroke="#ff8c41" stroke-width="1.51"/><path d="M468,856L531,1012L536,827Z" fill="#f8833f" stroke="#f8833f" stroke-width="1.51"/><path d="M423,92L575,200L621,134Z" fill="#ffcc68" stroke="#ffcc68" stroke-width="1.51"/><path d="M548,-10L423,92L621,134Z" fill="#ffd170" stroke="#ffd170" stroke-width="1.51"/><path d="M461,1169L541,1318L622,1184Z" fill="#d67240" stroke="#d67240" stroke-width="1.51"/><path d="M442,349L490,494L623,357Z" fill="#ffb653" stroke="#ffb653" stroke-width="1.51"/><path d="M449,289L442,349L623,357Z" fill="#ffbc57" stroke="#ffbc57" stroke-width="1.51"/><path d="M490,494L487,682L606,593Z" fill="#ffa24b" stroke="#ffa24b" stroke-width="1.51"/><path d="M423,92L449,289L575,200Z" fill="#ffcb67" stroke="#ffcb67" stroke-width="1.51"/><path d="M468,856L429,1000L531,1012Z" fill="#f5823f" stroke="#f5823f" stroke-width="1.51"/><path d="M429,1000L461,1169L531,1012Z" fill="#eb7d42" stroke="#eb7d42" stroke-width="1.51"/><path d="M487,682L468,856L536,827Z" fill="#fe8d44" stroke="#fe8d44" stroke-width="1.51"/><path d="M461,1169L384,1244L541,1318Z" fill="#d47645" stroke="#d47645" stroke-width="1.51"/><path d="M384,1244L293,1339L541,1318Z" fill="#cb7749" stroke="#cb7749" stroke-width="1.51"/><path d="M328,-209L487,-157L548,-214Z" fill="#ffe291" stroke="#ffe291" stroke-width="1.51"/><path d="M484,-93L423,92L548,-10Z" fill="#ffd77b" stroke="#ffd77b" stroke-width="1.51"/><path d="M423,92L299,134L449,289Z" fill="#fed370" stroke="#fed370" stroke-width="1.51"/><path d="M429,1000L299,1101L461,1169Z" fill="#e98247" stroke="#e98247" stroke-width="1.51"/><path d="M242,-107L423,92L484,-93Z" fill="#ffdf85" stroke="#ffdf85" stroke-width="1.51"/><path d="M315,881L468,856L487,682Z" fill="#fe9148" stroke="#fe9148" stroke-width="1.51"/><path d="M233,715L315,881L487,682Z" fill="#ff994f" stroke="#ff994f" stroke-width="1.51"/><path d="M282,524L233,715L487,682Z" fill="#ffa856" stroke="#ffa856" stroke-width="1.51"/><path d="M328,-209L484,-93L487,-157Z" fill="#ffe18e" stroke="#ffe18e" stroke-width="1.51"/><path d="M282,524L487,682L490,494Z" fill="#ffac54" stroke="#ffac54" stroke-width="1.51"/><path d="M442,349L282,524L490,494Z" fill="#ffb859" stroke="#ffb859" stroke-width="1.51"/><path d="M315,881L429,1000L468,856Z" fill="#f88a45" stroke="#f88a45" stroke-width="1.51"/><path d="M300,344L282,524L442,349Z" fill="#ffc060" stroke="#ffc060" stroke-width="1.51"/><path d="M328,-209L242,-107L484,-93Z" fill="#ffe692" stroke="#ffe692" stroke-width="1.51"/><path d="M299,134L238,236L449,289Z" fill="#ffd26f" stroke="#ffd26f" stroke-width="1.51"/><path d="M299,1101L384,1244L461,1169Z" fill="#e07f4a" stroke="#e07f4a" stroke-width="1.51"/><path d="M242,-107L299,134L423,92Z" fill="#ffde82" stroke="#ffde82" stroke-width="1.51"/><path d="M309,1009L299,1101L429,1000Z" fill="#ee874a" stroke="#ee874a" stroke-width="1.51"/><path d="M238,236L300,344L449,289Z" fill="#fecb68" stroke="#fecb68" stroke-width="1.51"/><path d="M300,344L442,349L449,289Z" fill="#fec45f" stroke="#fec45f" stroke-width="1.51"/><path d="M315,881L309,1009L429,1000Z" fill="#f58a47" stroke="#f58a47" stroke-width="1.51"/><path d="M299,1101L293,1339L384,1244Z" fill="#d77f4e" stroke="#d77f4e" stroke-width="1.51"/><path d="M152,1131L79,1262L293,1339Z" fill="#d68358" stroke="#d68358" stroke-width="1.51"/><path d="M242,-107L186,144L299,134Z" fill="#ffe086" stroke="#ffe086" stroke-width="1.51"/><path d="M152,1131L293,1339L299,1101Z" fill="#de8353" stroke="#de8353" stroke-width="1.51"/><path d="M181,355L282,524L300,344Z" fill="#ffc366" stroke="#ffc366" stroke-width="1.51"/><path d="M107,1004L309,1009L315,881Z" fill="#f78e4f" stroke="#f78e4f" stroke-width="1.51"/><path d="M179,823L107,1004L315,881Z" fill="#fb9453" stroke="#fb9453" stroke-width="1.51"/><path d="M233,715L179,823L315,881Z" fill="#ff9955" stroke="#ff9955" stroke-width="1.51"/><path d="M160,-233L242,-107L328,-209Z" fill="#ffeb9e" stroke="#ffeb9e" stroke-width="1.51"/><path d="M121,-99L186,144L242,-107Z" fill="#ffe692" stroke="#ffe692" stroke-width="1.51"/><path d="M89,593L233,715L282,524Z" fill="#ffb160" stroke="#ffb160" stroke-width="1.51"/><path d="M79,1262L-8,1327L293,1339Z" fill="#cc815b" stroke="#cc815b" stroke-width="1.51"/><path d="M152,1131L299,1101L309,1009Z" fill="#eb8851" stroke="#eb8851" stroke-width="1.51"/><path d="M186,144L238,236L299,134Z" fill="#ffd97a" stroke="#ffd97a" stroke-width="1.51"/><path d="M238,236L181,355L300,344Z" fill="#ffcc6c" stroke="#ffcc6c" stroke-width="1.51"/><path d="M107,1004L152,1131L309,1009Z" fill="#ef8b54" stroke="#ef8b54" stroke-width="1.51"/><path d="M181,355L89,593L282,524Z" fill="#ffbe67" stroke="#ffbe67" stroke-width="1.51"/><path d="M121,-99L36,-78L186,144Z" fill="#ffe795" stroke="#ffe795" stroke-width="1.51"/><path d="M89,593L92,686L233,715Z" fill="#ffac62" stroke="#ffac62" stroke-width="1.51"/><path d="M186,144L147,189L238,236Z" fill="#ffd87c" stroke="#ffd87c" stroke-width="1.51"/><path d="M147,189L181,355L238,236Z" fill="#ffd275" stroke="#ffd275" stroke-width="1.51"/><path d="M160,-233L121,-99L242,-107Z" fill="#ffec9f" stroke="#ffec9f" stroke-width="1.51"/><path d="M92,686L179,823L233,715Z" fill="#ffa15c" stroke="#ffa15c" stroke-width="1.51"/><path d="M24,338L24,592L89,593Z" fill="#ffc170" stroke="#ffc170" stroke-width="1.51"/><path d="M-6,834L-13,938L107,1004Z" fill="#fb975e" stroke="#fb975e" stroke-width="1.51"/><path d="M-6,834L107,1004L179,823Z" fill="#fd985b" stroke="#fd985b" stroke-width="1.51"/><path d="M147,189L24,338L181,355Z" fill="#ffd176" stroke="#ffd176" stroke-width="1.51"/><path d="M24,338L89,593L181,355Z" fill="#ffc670" stroke="#ffc670" stroke-width="1.51"/><path d="M36,-78L-58,57L186,144Z" fill="#ffe795" stroke="#ffe795" stroke-width="1.51"/><path d="M-5,189L147,189L186,144Z" fill="#ffdd83" stroke="#ffdd83" stroke-width="1.51"/><path d="M-58,57L-5,189L186,144Z" fill="#ffe38c" stroke="#ffe38c" stroke-width="1.51"/><path d="M92,686L-6,834L179,823Z" fill="#ffa060" stroke="#ffa060" stroke-width="1.51"/><path d="M-30,-249L36,-78L121,-99Z" fill="#fff0a8" stroke="#fff0a8" stroke-width="1.51"/><path d="M-5,189L24,338L147,189Z" fill="#ffd880" stroke="#ffd880" stroke-width="1.51"/><path d="M-30,-249L121,-99L160,-233Z" fill="#fff1ab" stroke="#fff1ab" stroke-width="1.51"/><path d="M107,1004L-42,1086L152,1131Z" fill="#ee8f5d" stroke="#ee8f5d" stroke-width="1.51"/><path d="M-42,1086L79,1262L152,1131Z" fill="#e58b5f" stroke="#e58b5f" stroke-width="1.51"/><path d="M-10,695L-6,834L92,686Z" fill="#ffa666" stroke="#ffa666" stroke-width="1.51"/><path d="M-133,411L24,592L24,338Z" fill="#ffc878" stroke="#ffc878" stroke-width="1.51"/><path d="M89,593L24,592L92,686Z" fill="#ffb369" stroke="#ffb369" stroke-width="1.51"/><path d="M-13,938L-42,1086L107,1004Z" fill="#f4935f" stroke="#f4935f" stroke-width="1.51"/><path d="M-133,411L-133,546L24,592Z" fill="#ffc479" stroke="#ffc479" stroke-width="1.51"/><path d="M-42,1086L-8,1327L79,1262Z" fill="#db8962" stroke="#db8962" stroke-width="1.51"/><path d="M24,592L-10,695L92,686Z" fill="#ffb06a" stroke="#ffb06a" stroke-width="1.51"/><path d="M-112,-266L-221,-64L-30,-249Z" fill="#fff7ba" stroke="#fff7ba" stroke-width="1.51"/><path d="M-42,1086L-151,1128L-8,1327Z" fill="#e38e68" stroke="#e38e68" stroke-width="1.51"/><path d="M-5,189L-171,204L24,338Z" fill="#ffdb87" stroke="#ffdb87" stroke-width="1.51"/><path d="M-30,-249L-221,-64L36,-78Z" fill="#fff3af" stroke="#fff3af" stroke-width="1.51"/><path d="M-221,-64L-58,57L36,-78Z" fill="#ffeea6" stroke="#ffeea6" stroke-width="1.51"/><path d="M-148,654L-10,695L24,592Z" fill="#ffb46f" stroke="#ffb46f" stroke-width="1.51"/><path d="M-133,546L-148,654L24,592Z" fill="#ffbb75" stroke="#ffbb75" stroke-width="1.51"/><path d="M-171,204L-133,411L24,338Z" fill="#ffd583" stroke="#ffd583" stroke-width="1.51"/><path d="M-213,856L-160,993L-13,938Z" fill="#fd9c69" stroke="#fd9c69" stroke-width="1.51"/><path d="M-160,993L-42,1086L-13,938Z" fill="#f69665" stroke="#f69665" stroke-width="1.51"/><path d="M-151,1128L-207,1314L-8,1327Z" fill="#d78b6b" stroke="#d78b6b" stroke-width="1.51"/><path d="M-213,856L-13,938L-6,834Z" fill="#ff9e68" stroke="#ff9e68" stroke-width="1.51"/><path d="M-10,695L-148,654L-6,834Z" fill="#ffaa6d" stroke="#ffaa6d" stroke-width="1.51"/><path d="M-148,654L-213,856L-6,834Z" fill="#ffa76f" stroke="#ffa76f" stroke-width="1.51"/><path d="M-58,57L-171,204L-5,189Z" fill="#ffe593" stroke="#ffe593" stroke-width="1.51"/><path d="M-221,-64L-206,48L-58,57Z" fill="#ffefa7" stroke="#ffefa7" stroke-width="1.51"/><path d="M-206,48L-171,204L-58,57Z" fill="#ffea9d" stroke="#ffea9d" stroke-width="1.51"/><path d="M-160,993L-151,1128L-42,1086Z" fill="#f09469" stroke="#f09469" stroke-width="1.51"/><path d="M-213,856L-148,654L-133,411Z" fill="#ffb879" stroke="#ffb879" stroke-width="1.51"/><path d="M-171,204L-213,856L-133,411Z" fill="#ffc981" stroke="#ffc981" stroke-width="1.51"/><path d="M-133,411L-148,654L-133,546Z" fill="#ffc47c" stroke="#ffc47c" stroke-width="1.51"/><path d="M-213,856L-207,1314L-160,993Z" fill="#f2976e" stroke="#f2976e" stroke-width="1.51"/><path d="M-160,993L-207,1314L-151,1128Z" fill="#e9936e" stroke="#e9936e" stroke-width="1.51"/><path d="M-206,48L-213,856L-171,204Z" fill="#ffd488" stroke="#ffd488" stroke-width="1.51"/><path d="M-221,-64L-213,856L-206,48Z" fill="#ffdc90" stroke="#ffdc90" stroke-width="1.51"/></svg>