<svg width="999" height="651" xmlns="http://www.w3.org/2000/svg"><g><path d="M-42,-36L-44,253L-29,75Z" fill="#c38539" stroke="#c38539"/><path d="M-42,-36L-29,75L-22,49Z" fill="#b86f23" stroke="#b86f23"/><path d="M-42,-36L-22,49L34,14Z" fill="#b76b20" stroke="#b76b20"/><path d="M-42,-36L34,14L32,-35Z" fill="#b4651a" stroke="#b4651a"/><path d="M-42,-36L32,-35L149,-44Z" fill="#b5661a" stroke="#b5661a"/><path d="M32,-35L34,14L81,-34Z" fill="#b96d22" stroke="#b96d22"/><path d="M32,-35L81,-34L149,-44Z" fill="#ba6e23" stroke="#ba6e23"/><path d="M81,-34L34,14L78,36Z" fill="#bf792e" stroke="#bf792e"/><path d="M81,-34L78,36L136,50Z" fill="#c48338" stroke="#c48338"/><path d="M81,-34L136,50L149,-44Z" fill="#c37e33" stroke="#c37e33"/><path d="M149,-44L136,50L205,23Z" fill="#ca8d43" stroke="#ca8d43"/><path d="M149,-44L205,23L212,-45Z" fill="#c8873d" stroke="#c8873d"/><path d="M212,-45L205,23L257,-25Z" fill="#cd9046" stroke="#cd9046"/><path d="M212,-45L257,-25L376,-25Z" fill="#c7904a" stroke="#c7904a"/><path d="M212,-45L376,-25L504,-41Z" fill="#b79053" stroke="#b79053"/><path d="M212,-45L504,-41L798,-49Z" fill="#9a9061" stroke="#9a9061"/><path d="M257,-25L205,23L276,48Z" fill="#d5a055" stroke="#d5a055"/><path d="M257,-25L276,48L310,-13Z" fill="#cd9c56" stroke="#cd9c56"/><path d="M257,-25L310,-13L376,-25Z" fill="#c39552" stroke="#c39552"/><path d="M310,-13L276,48L347,44Z" fill="#cca662" stroke="#cca662"/><path d="M310,-13L347,44L376,-25Z" fill="#c19d5e" stroke="#c19d5e"/><path d="M376,-25L347,44L410,33Z" fill="#bda468" stroke="#bda468"/><path d="M376,-25L410,33L431,-18Z" fill="#b59d64" stroke="#b59d64"/><path d="M376,-25L431,-18L504,-41Z" fill="#aa9560" stroke="#aa9560"/><path d="M431,-18L410,33L469,13Z" fill="#b1a26d" stroke="#b1a26d"/><path d="M431,-18L469,13L504,-41Z" fill="#a79a68" stroke="#a79a68"/><path d="M504,-41L469,13L520,22Z" fill="#a3a072" stroke="#a3a072"/><path d="M504,-41L520,22L565,-39Z" fill="#989566" stroke="#989566"/><path d="M504,-41L565,-39L798,-49Z" fill="#7d7f50" stroke="#7d7f50"/><path d="M565,-39L520,22L550,26Z" fill="#989b6c" stroke="#989b6c"/><path d="M565,-39L550,26L645,16Z" fill="#8d9465" stroke="#8d9465"/><path d="M565,-39L645,16L648,-32Z" fill="#828859" stroke="#828859"/><path d="M565,-39L648,-32L709,-41Z" fill="#797e4f" stroke="#797e4f"/><path d="M565,-39L709,-41L798,-49Z" fill="#6b7545" stroke="#6b7545"/><path d="M648,-32L645,16L672,12Z" fill="#7c8959" stroke="#7c8959"/><path d="M648,-32L672,12L709,-41Z" fill="#73804f" stroke="#73804f"/><path d="M709,-41L672,12L731,-17Z" fill="#6d7d4c" stroke="#6d7d4c"/><path d="M709,-41L731,-17L798,-49Z" fill="#5f703e" stroke="#5f703e"/><path d="M731,-17L672,12L743,30Z" fill="#6e8453" stroke="#6e8453"/><path d="M731,-17L743,30L792,36Z" fill="#66814f" stroke="#66814f"/><path d="M731,-17L792,36L798,-49Z" fill="#617543" stroke="#617543"/><path d="M798,-49L792,36L864,-33Z" fill="#616d3a" stroke="#616d3a"/><path d="M798,-49L864,-33L939,-44Z" fill="#5c5c29" stroke="#5c5c29"/><path d="M864,-33L792,36L882,13Z" fill="#64703d" stroke="#64703d"/><path d="M864,-33L882,13L939,-44Z" fill="#60602b" stroke="#60602b"/><path d="M939,-44L882,13L946,16Z" fill="#62612d" stroke="#62612d"/><path d="M939,-44L946,16L973,-12Z" fill="#615a25" stroke="#615a25"/><path d="M939,-44L973,-12L1070,-23Z" fill="#5f4f1a" stroke="#5f4f1a"/><path d="M973,-12L946,16L984,11Z" fill="#645f29" stroke="#645f29"/><path d="M973,-12L984,11L1070,-23Z" fill="#62541e" stroke="#62541e"/><path d="M1070,-23L984,11L1061,17Z" fill="#64531c" stroke="#64531c"/><path d="M1070,-23L1061,17L1063,139Z" fill="#6b5f27" stroke="#6b5f27"/><path d="M1070,-23L1063,139L1066,215Z" fill="#77763e" stroke="#77763e"/><path d="M1070,-23L1066,215L1066,348Z" fill="#7a8955" stroke="#7a8955"/><path d="M1070,-23L1066,348L1066,617Z" fill="#508f76" stroke="#508f76"/><path d="M-22,49L-29,75L37,102Z" fill="#c38438" stroke="#c38438"/><path d="M-22,49L37,102L34,14Z" fill="#c28135" stroke="#c28135"/><path d="M34,14L37,102L78,36Z" fill="#c5863a" stroke="#c5863a"/><path d="M78,36L37,102L76,98Z" fill="#cc9347" stroke="#cc9347"/><path d="M78,36L76,98L136,50Z" fill="#cc9347" stroke="#cc9347"/><path d="M136,50L76,98L144,88Z" fill="#d29d52" stroke="#d29d52"/><path d="M136,50L144,88L214,81Z" fill="#d6a459" stroke="#d6a459"/><path d="M136,50L214,81L205,23Z" fill="#d4a155" stroke="#d4a155"/><path d="M205,23L214,81L253,70Z" fill="#daaa60" stroke="#daaa60"/><path d="M205,23L253,70L276,48Z" fill="#daaa60" stroke="#daaa60"/><path d="M276,48L253,70L346,73Z" fill="#d6b26c" stroke="#d6b26c"/><path d="M276,48L346,73L347,44Z" fill="#ceb06e" stroke="#ceb06e"/><path d="M347,44L346,73L391,87Z" fill="#cab577" stroke="#cab577"/><path d="M347,44L391,87L410,33Z" fill="#c3b175" stroke="#c3b175"/><path d="M410,33L391,87L438,77Z" fill="#bfb67d" stroke="#bfb67d"/><path d="M410,33L438,77L469,13Z" fill="#b6ad79" stroke="#b6ad79"/><path d="M469,13L438,77L503,92Z" fill="#b3b583" stroke="#b3b583"/><path d="M469,13L503,92L520,22Z" fill="#abaf81" stroke="#abaf81"/><path d="M520,22L503,92L567,73Z" fill="#a6b283" stroke="#a6b283"/><path d="M520,22L567,73L550,26Z" fill="#9fa879" stroke="#9fa879"/><path d="M550,26L567,73L645,16Z" fill="#93a172" stroke="#93a172"/><path d="M645,16L567,73L640,90Z" fill="#90a574" stroke="#90a574"/><path d="M645,16L640,90L672,12Z" fill="#839868" stroke="#839868"/><path d="M672,12L640,90L675,101Z" fill="#86a170" stroke="#86a170"/><path d="M672,12L675,101L743,30Z" fill="#7a9563" stroke="#7a9563"/><path d="M743,30L675,101L754,82Z" fill="#779967" stroke="#779967"/><path d="M743,30L754,82L792,36Z" fill="#6c8c5a" stroke="#6c8c5a"/><path d="M792,36L754,82L801,107Z" fill="#70925f" stroke="#70925f"/><path d="M792,36L801,107L886,102Z" fill="#728e5a" stroke="#728e5a"/><path d="M792,36L886,102L882,13Z" fill="#6c7f4b" stroke="#6c7f4b"/><path d="M882,13L886,102L949,89Z" fill="#6f7e49" stroke="#6f7e49"/><path d="M882,13L949,89L946,16Z" fill="#6a713c" stroke="#6a713c"/><path d="M946,16L949,89L984,11Z" fill="#6a6c36" stroke="#6a6c36"/><path d="M984,11L949,89L1008,79Z" fill="#6e703a" stroke="#6e703a"/><path d="M984,11L1008,79L1061,17Z" fill="#69622c" stroke="#69622c"/><path d="M1061,17L1008,79L1034,105Z" fill="#6f6b34" stroke="#6f6b34"/><path d="M1061,17L1034,105L1063,139Z" fill="#727038" stroke="#727038"/><path d="M-29,75L-44,253L-27,192Z" fill="#cb9e54" stroke="#cb9e54"/><path d="M-29,75L-27,192L-21,159Z" fill="#cc984b" stroke="#cc984b"/><path d="M-29,75L-21,159L37,102Z" fill="#c99145" stroke="#c99145"/><path d="M37,102L-21,159L14,167Z" fill="#d09f53" stroke="#d09f53"/><path d="M37,102L14,167L89,132Z" fill="#d3a357" stroke="#d3a357"/><path d="M37,102L89,132L76,98Z" fill="#d19f53" stroke="#d19f53"/><path d="M76,98L89,132L144,88Z" fill="#d5a458" stroke="#d5a458"/><path d="M144,88L89,132L170,157Z" fill="#dcb165" stroke="#dcb165"/><path d="M144,88L170,157L214,81Z" fill="#ddb368" stroke="#ddb368"/><path d="M214,81L170,157L199,156Z" fill="#e3bf73" stroke="#e3bf73"/><path d="M214,81L199,156L272,150Z" fill="#e7c579" stroke="#e7c579"/><path d="M214,81L272,150L253,70Z" fill="#e4be73" stroke="#e4be73"/><path d="M253,70L272,150L330,145Z" fill="#e2c780" stroke="#e2c780"/><path d="M253,70L330,145L346,73Z" fill="#d8be7a" stroke="#d8be7a"/><path d="M346,73L330,145L391,87Z" fill="#d1c182" stroke="#d1c182"/><path d="M391,87L330,145L397,150Z" fill="#d2cb8d" stroke="#d2cb8d"/><path d="M391,87L397,150L438,77Z" fill="#c7c48a" stroke="#c7c48a"/><path d="M438,77L397,150L469,151Z" fill="#c6cc95" stroke="#c6cc95"/><path d="M438,77L469,151L503,92Z" fill="#bbc694" stroke="#bbc694"/><path d="M503,92L469,151L524,133Z" fill="#b9cd9e" stroke="#b9cd9e"/><path d="M503,92L524,133L567,73Z" fill="#adbf90" stroke="#adbf90"/><path d="M567,73L524,133L557,158Z" fill="#acc495" stroke="#acc495"/><path d="M567,73L557,158L615,163Z" fill="#a6c493" stroke="#a6c493"/><path d="M567,73L615,163L640,90Z" fill="#9bb787" stroke="#9bb787"/><path d="M640,90L615,163L675,101Z" fill="#93b685" stroke="#93b685"/><path d="M675,101L615,163L695,153Z" fill="#93ba89" stroke="#93ba89"/><path d="M675,101L695,153L754,82Z" fill="#82aa78" stroke="#82aa78"/><path d="M754,82L695,153L750,156Z" fill="#7fad7a" stroke="#7fad7a"/><path d="M754,82L750,156L792,144Z" fill="#7aa774" stroke="#7aa774"/><path d="M754,82L792,144L801,107Z" fill="#779f6c" stroke="#779f6c"/><path d="M801,107L792,144L850,145Z" fill="#7aa26e" stroke="#7aa26e"/><path d="M801,107L850,145L886,102Z" fill="#789864" stroke="#789864"/><path d="M886,102L850,145L927,130Z" fill="#799560" stroke="#799560"/><path d="M886,102L927,130L949,89Z" fill="#768a54" stroke="#768a54"/><path d="M949,89L927,130L1001,166Z" fill="#7a8c56" stroke="#7a8c56"/><path d="M949,89L1001,166L1008,79Z" fill="#77824b" stroke="#77824b"/><path d="M1008,79L1001,166L1034,105Z" fill="#788049" stroke="#788049"/><path d="M1034,105L1001,166L1063,139Z" fill="#7b844d" stroke="#7b844d"/><path d="M-21,159L-27,192L14,167Z" fill="#cea358" stroke="#cea358"/><path d="M14,167L-27,192L37,210Z" fill="#cba760" stroke="#cba760"/><path d="M14,167L37,210L89,132Z" fill="#d6ae62" stroke="#d6ae62"/><path d="M89,132L37,210L71,220Z" fill="#d2b26b" stroke="#d2b26b"/><path d="M89,132L71,220L145,216Z" fill="#d6b972" stroke="#d6b972"/><path d="M89,132L145,216L170,157Z" fill="#e0be74" stroke="#e0be74"/><path d="M170,157L145,216L199,156Z" fill="#e2c67d" stroke="#e2c67d"/><path d="M199,156L145,216L229,227Z" fill="#ddcb87" stroke="#ddcb87"/><path d="M199,156L229,227L263,201Z" fill="#e3d28d" stroke="#e3d28d"/><path d="M199,156L263,201L272,150Z" fill="#edd48a" stroke="#edd48a"/><path d="M272,150L263,201L317,215Z" fill="#e1d794" stroke="#e1d794"/><path d="M272,150L317,215L330,145Z" fill="#e2d693" stroke="#e2d693"/><path d="M330,145L317,215L370,210Z" fill="#d6d89c" stroke="#d6d89c"/><path d="M330,145L370,210L397,150Z" fill="#d7d79b" stroke="#d7d79b"/><path d="M397,150L370,210L453,219Z" fill="#c8daa6" stroke="#c8daa6"/><path d="M397,150L453,219L469,151Z" fill="#c8d9a6" stroke="#c8d9a6"/><path d="M469,151L453,219L494,205Z" fill="#bcdbaf" stroke="#bcdbaf"/><path d="M469,151L494,205L524,133Z" fill="#c0daab" stroke="#c0daab"/><path d="M524,133L494,205L555,192Z" fill="#b5d7ab" stroke="#b5d7ab"/><path d="M524,133L555,192L557,158Z" fill="#b4d3a3" stroke="#b4d3a3"/><path d="M557,158L555,192L615,163Z" fill="#aad0a1" stroke="#aad0a1"/><path d="M615,163L555,192L627,221Z" fill="#9dcda3" stroke="#9dcda3"/><path d="M615,163L627,221L677,205Z" fill="#92c89d" stroke="#92c89d"/><path d="M615,163L677,205L695,153Z" fill="#93c394" stroke="#93c394"/><path d="M695,153L677,205L738,197Z" fill="#85be90" stroke="#85be90"/><path d="M695,153L738,197L750,156Z" fill="#84ba88" stroke="#84ba88"/><path d="M750,156L738,197L800,211Z" fill="#78b588" stroke="#78b588"/><path d="M750,156L800,211L792,144Z" fill="#7db280" stroke="#7db280"/><path d="M792,144L800,211L850,145Z" fill="#7fad7a" stroke="#7fad7a"/><path d="M850,145L800,211L860,206Z" fill="#78ab7b" stroke="#78ab7b"/><path d="M850,145L860,206L927,130Z" fill="#7fa36d" stroke="#7fa36d"/><path d="M927,130L860,206L931,220Z" fill="#79a170" stroke="#79a170"/><path d="M927,130L931,220L1001,166Z" fill="#7d9965" stroke="#7d9965"/><path d="M1001,166L931,220L1000,227Z" fill="#739769" stroke="#739769"/><path d="M1001,166L1000,227L1066,215Z" fill="#739062" stroke="#739062"/><path d="M1001,166L1066,215L1063,139Z" fill="#7c8c57" stroke="#7c8c57"/><path d="M-27,192L-44,253L37,210Z" fill="#c0a564" stroke="#c0a564"/><path d="M37,210L-44,253L45,275Z" fill="#baaa6f" stroke="#baaa6f"/><path d="M37,210L45,275L71,220Z" fill="#c2b174" stroke="#c2b174"/><path d="M71,220L45,275L86,255Z" fill="#bfb57b" stroke="#bfb57b"/><path d="M71,220L86,255L145,216Z" fill="#c9bb7d" stroke="#c9bb7d"/><path d="M145,216L86,255L160,277Z" fill="#c6c187" stroke="#c6c187"/><path d="M145,216L160,277L219,263Z" fill="#cbca90" stroke="#cbca90"/><path d="M145,216L219,263L229,227Z" fill="#d2ce91" stroke="#d2ce91"/><path d="M229,227L219,263L269,278Z" fill="#d1d79e" stroke="#d1d79e"/><path d="M229,227L269,278L263,201Z" fill="#d8d89c" stroke="#d8d89c"/><path d="M263,201L269,278L312,259Z" fill="#cfd9a2" stroke="#cfd9a2"/><path d="M263,201L312,259L317,215Z" fill="#d3d89f" stroke="#d3d89f"/><path d="M317,215L312,259L370,210Z" fill="#cbdaa5" stroke="#cbdaa5"/><path d="M370,210L312,259L379,265Z" fill="#c1dbac" stroke="#c1dbac"/><path d="M370,210L379,265L453,219Z" fill="#bddbaf" stroke="#bddbaf"/><path d="M453,219L379,265L455,276Z" fill="#b1ddb8" stroke="#b1ddb8"/><path d="M453,219L455,276L502,265Z" fill="#a9debe" stroke="#a9debe"/><path d="M453,219L502,265L494,205Z" fill="#aeddba" stroke="#aeddba"/><path d="M494,205L502,265L555,192Z" fill="#a9dab7" stroke="#a9dab7"/><path d="M555,192L502,265L585,270Z" fill="#9bd7b8" stroke="#9bd7b8"/><path d="M555,192L585,270L627,221Z" fill="#94d0ad" stroke="#94d0ad"/><path d="M627,221L585,270L625,259Z" fill="#88ceaf" stroke="#88ceaf"/><path d="M627,221L625,259L677,205Z" fill="#86c9a5" stroke="#86c9a5"/><path d="M677,205L625,259L706,274Z" fill="#7ac5a5" stroke="#7ac5a5"/><path d="M677,205L706,274L748,250Z" fill="#71bf9d" stroke="#71bf9d"/><path d="M677,205L748,250L738,197Z" fill="#76bd95" stroke="#76bd95"/><path d="M738,197L748,250L800,211Z" fill="#6eb78f" stroke="#6eb78f"/><path d="M800,211L748,250L830,258Z" fill="#67b38f" stroke="#67b38f"/><path d="M800,211L830,258L860,206Z" fill="#6cad86" stroke="#6cad86"/><path d="M860,206L830,258L882,251Z" fill="#68aa85" stroke="#68aa85"/><path d="M860,206L882,251L931,220Z" fill="#6ca47c" stroke="#6ca47c"/><path d="M931,220L882,251L932,275Z" fill="#65a27e" stroke="#65a27e"/><path d="M931,220L932,275L990,254Z" fill="#649d78" stroke="#649d78"/><path d="M931,220L990,254L1000,227Z" fill="#699971" stroke="#699971"/><path d="M1000,227L990,254L1035,276Z" fill="#639570" stroke="#639570"/><path d="M1000,227L1035,276L1066,215Z" fill="#689169" stroke="#689169"/><path d="M1066,215L1035,276L1066,348Z" fill="#5b8f6f" stroke="#5b8f6f"/><path d="M-44,253L-27,678L-25,587Z" fill="#5b7545" stroke="#5b7545"/><path d="M-44,253L-25,587L-18,441Z" fill="#778b5d" stroke="#778b5d"/><path d="M-44,253L-18,441L-16,388Z" fill="#909d71" stroke="#909d71"/><path d="M-44,253L-16,388L-12,329Z" fill="#9da77b" stroke="#9da77b"/><path d="M-44,253L-12,329L45,275Z" fill="#aba976" stroke="#aba976"/><path d="M45,275L-12,329L29,337Z" fill="#a5af81" stroke="#a5af81"/><path d="M45,275L29,337L94,328Z" fill="#aab688" stroke="#aab688"/><path d="M45,275L94,328L86,255Z" fill="#b4b885" stroke="#b4b885"/><path d="M86,255L94,328L143,318Z" fill="#b4bf8f" stroke="#b4bf8f"/><path d="M86,255L143,318L160,277Z" fill="#bcc28f" stroke="#bcc28f"/><path d="M160,277L143,318L197,335Z" fill="#b7cb9d" stroke="#b7cb9d"/><path d="M160,277L197,335L219,263Z" fill="#c0cf9e" stroke="#c0cf9e"/><path d="M219,263L197,335L269,278Z" fill="#c4d6a5" stroke="#c4d6a5"/><path d="M269,278L197,335L283,310Z" fill="#c1dbad" stroke="#c1dbad"/><path d="M269,278L283,310L312,259Z" fill="#c2dbac" stroke="#c2dbac"/><path d="M312,259L283,310L316,336Z" fill="#b9dcb3" stroke="#b9dcb3"/><path d="M312,259L316,336L379,265Z" fill="#b8dcb4" stroke="#b8dcb4"/><path d="M379,265L316,336L396,326Z" fill="#abdebd" stroke="#abdebd"/><path d="M379,265L396,326L455,276Z" fill="#a9debf" stroke="#a9debf"/><path d="M455,276L396,326L463,336Z" fill="#9cdfc8" stroke="#9cdfc8"/><path d="M455,276L463,336L515,316Z" fill="#95e0cd" stroke="#95e0cd"/><path d="M455,276L515,316L502,265Z" fill="#9ae0c9" stroke="#9ae0c9"/><path d="M502,265L515,316L585,270Z" fill="#90dac4" stroke="#90dac4"/><path d="M585,270L515,316L551,342Z" fill="#84d9c8" stroke="#84d9c8"/><path d="M585,270L551,342L621,318Z" fill="#7bd4c2" stroke="#7bd4c2"/><path d="M585,270L621,318L625,259Z" fill="#7ecfb7" stroke="#7ecfb7"/><path d="M625,259L621,318L679,317Z" fill="#71ccb6" stroke="#71ccb6"/><path d="M625,259L679,317L706,274Z" fill="#6ec7ae" stroke="#6ec7ae"/><path d="M706,274L679,317L762,328Z" fill="#5bc1ac" stroke="#5bc1ac"/><path d="M706,274L762,328L748,250Z" fill="#5cbda3" stroke="#5cbda3"/><path d="M748,250L762,328L830,258Z" fill="#5bb79b" stroke="#5bb79b"/><path d="M830,258L762,328L829,340Z" fill="#52b49f" stroke="#52b49f"/><path d="M830,258L829,340L857,312Z" fill="#53af98" stroke="#53af98"/><path d="M830,258L857,312L882,251Z" fill="#5dac8e" stroke="#5dac8e"/><path d="M882,251L857,312L932,275Z" fill="#5ba78a" stroke="#5ba78a"/><path d="M932,275L857,312L922,334Z" fill="#52a68f" stroke="#52a68f"/><path d="M932,275L922,334L977,317Z" fill="#52a189" stroke="#52a189"/><path d="M932,275L977,317L990,254Z" fill="#5a9c7e" stroke="#5a9c7e"/><path d="M990,254L977,317L1035,276Z" fill="#5a9779" stroke="#5a9779"/><path d="M1035,276L977,317L1066,348Z" fill="#50957c" stroke="#50957c"/><path d="M-12,329L-16,388L29,337Z" fill="#96a479" stroke="#96a479"/><path d="M29,337L-16,388L26,400Z" fill="#8fa174" stroke="#8fa174"/><path d="M29,337L26,400L79,402Z" fill="#91a579" stroke="#91a579"/><path d="M29,337L79,402L94,328Z" fill="#9cb085" stroke="#9cb085"/><path d="M94,328L79,402L168,391Z" fill="#9bb489" stroke="#9bb489"/><path d="M94,328L168,391L143,318Z" fill="#a8c095" stroke="#a8c095"/><path d="M143,318L168,391L197,335Z" fill="#abc69b" stroke="#abc69b"/><path d="M197,335L168,391L195,388Z" fill="#a4c398" stroke="#a4c398"/><path d="M197,335L195,388L252,390Z" fill="#a7c99d" stroke="#a7c99d"/><path d="M197,335L252,390L283,310Z" fill="#b4d6ab" stroke="#b4d6ab"/><path d="M283,310L252,390L316,336Z" fill="#aed7b0" stroke="#aed7b0"/><path d="M316,336L252,390L311,388Z" fill="#a3d0aa" stroke="#a3d0aa"/><path d="M316,336L311,388L376,398Z" fill="#9ad1af" stroke="#9ad1af"/><path d="M316,336L376,398L396,326Z" fill="#9cd7b9" stroke="#9cd7b9"/><path d="M396,326L376,398L446,394Z" fill="#8dd3b9" stroke="#8dd3b9"/><path d="M396,326L446,394L463,336Z" fill="#8fd9c3" stroke="#8fd9c3"/><path d="M463,336L446,394L496,379Z" fill="#82d5c3" stroke="#82d5c3"/><path d="M463,336L496,379L515,316Z" fill="#87dccd" stroke="#87dccd"/><path d="M515,316L496,379L551,342Z" fill="#80d9ca" stroke="#80d9ca"/><path d="M551,342L496,379L556,380Z" fill="#74d1c2" stroke="#74d1c2"/><path d="M551,342L556,380L621,318Z" fill="#71d1c1" stroke="#71d1c1"/><path d="M621,318L556,380L635,385Z" fill="#65c9b9" stroke="#65c9b9"/><path d="M621,318L635,385L679,317Z" fill="#62c8b8" stroke="#62c8b8"/><path d="M679,317L635,385L689,406Z" fill="#51beac" stroke="#51beac"/><path d="M679,317L689,406L750,373Z" fill="#49b9a7" stroke="#49b9a7"/><path d="M679,317L750,373L762,328Z" fill="#4dbcab" stroke="#4dbcab"/><path d="M762,328L750,373L803,394Z" fill="#3eb09d" stroke="#3eb09d"/><path d="M762,328L803,394L829,340Z" fill="#42af9b" stroke="#42af9b"/><path d="M829,340L803,394L877,378Z" fill="#3ca591" stroke="#3ca591"/><path d="M829,340L877,378L857,312Z" fill="#46a996" stroke="#46a996"/><path d="M857,312L877,378L922,334Z" fill="#47a691" stroke="#47a691"/><path d="M922,334L877,378L941,374Z" fill="#3f9c87" stroke="#3f9c87"/><path d="M922,334L941,374L977,317Z" fill="#469c88" stroke="#469c88"/><path d="M977,317L941,374L973,379Z" fill="#419680" stroke="#419680"/><path d="M977,317L973,379L1032,375Z" fill="#41917c" stroke="#41917c"/><path d="M977,317L1032,375L1066,348Z" fill="#45907a" stroke="#45907a"/><path d="M1066,348L1032,375L1031,436Z" fill="#36826b" stroke="#36826b"/><path d="M1066,348L1031,436L1056,493Z" fill="#28775e" stroke="#28775e"/><path d="M1066,348L1056,493L1066,617Z" fill="#13654b" stroke="#13654b"/><path d="M-16,388L-18,441L26,400Z" fill="#809467" stroke="#809467"/><path d="M26,400L-18,441L32,445Z" fill="#7c9265" stroke="#7c9265"/><path d="M26,400L32,445L79,402Z" fill="#849c6f" stroke="#849c6f"/><path d="M79,402L32,445L87,468Z" fill="#7e9a6c" stroke="#7e9a6c"/><path d="M79,402L87,468L153,452Z" fill="#82a174" stroke="#82a174"/><path d="M79,402L153,452L168,391Z" fill="#8ead81" stroke="#8ead81"/><path d="M168,391L153,452L199,431Z" fill="#90b286" stroke="#90b286"/><path d="M168,391L199,431L195,388Z" fill="#99bb8f" stroke="#99bb8f"/><path d="M195,388L199,431L252,390Z" fill="#9cc194" stroke="#9cc194"/><path d="M252,390L199,431L265,454Z" fill="#96bf93" stroke="#96bf93"/><path d="M252,390L265,454L311,388Z" fill="#98c59c" stroke="#98c59c"/><path d="M311,388L265,454L342,458Z" fill="#8ac09a" stroke="#8ac09a"/><path d="M311,388L342,458L376,398Z" fill="#8ac6a4" stroke="#8ac6a4"/><path d="M376,398L342,458L400,446Z" fill="#7dc1a3" stroke="#7dc1a3"/><path d="M376,398L400,446L446,394Z" fill="#7ec8ae" stroke="#7ec8ae"/><path d="M446,394L400,446L451,466Z" fill="#72c2ab" stroke="#72c2ab"/><path d="M446,394L451,466L513,459Z" fill="#69c2ae" stroke="#69c2ae"/><path d="M446,394L513,459L496,379Z" fill="#71cab9" stroke="#71cab9"/><path d="M496,379L513,459L557,434Z" fill="#63c4b4" stroke="#63c4b4"/><path d="M496,379L557,434L556,380Z" fill="#69c8b9" stroke="#69c8b9"/><path d="M556,380L557,434L618,434Z" fill="#58bead" stroke="#58bead"/><path d="M556,380L618,434L635,385Z" fill="#57beae" stroke="#57beae"/><path d="M635,385L618,434L689,406Z" fill="#49b6a4" stroke="#49b6a4"/><path d="M689,406L618,434L685,444Z" fill="#3dae9b" stroke="#3dae9b"/><path d="M689,406L685,444L742,436Z" fill="#33a895" stroke="#33a895"/><path d="M689,406L742,436L750,373Z" fill="#36ab98" stroke="#36ab98"/><path d="M750,373L742,436L803,394Z" fill="#31a793" stroke="#31a793"/><path d="M803,394L742,436L803,464Z" fill="#269c87" stroke="#269c87"/><path d="M803,394L803,464L859,462Z" fill="#23947f" stroke="#23947f"/><path d="M803,394L859,462L877,378Z" fill="#2d9883" stroke="#2d9883"/><path d="M877,378L859,462L935,459Z" fill="#268c76" stroke="#268c76"/><path d="M877,378L935,459L941,374Z" fill="#30907a" stroke="#30907a"/><path d="M941,374L935,459L973,379Z" fill="#308b75" stroke="#308b75"/><path d="M973,379L935,459L1005,469Z" fill="#258068" stroke="#258068"/><path d="M973,379L1005,469L1031,436Z" fill="#277d65" stroke="#277d65"/><path d="M973,379L1031,436L1032,375Z" fill="#33846d" stroke="#33846d"/><path d="M-18,441L-25,587L-11,502Z" fill="#5b7647" stroke="#5b7647"/><path d="M-18,441L-11,502L32,445Z" fill="#6e8758" stroke="#6e8758"/><path d="M32,445L-11,502L31,504Z" fill="#688456" stroke="#688456"/><path d="M32,445L31,504L87,468Z" fill="#708e5f" stroke="#708e5f"/><path d="M87,468L31,504L110,517Z" fill="#6a8d5d" stroke="#6a8d5d"/><path d="M87,468L110,517L153,452Z" fill="#76996a" stroke="#76996a"/><path d="M153,452L110,517L151,512Z" fill="#72996b" stroke="#72996b"/><path d="M153,452L151,512L204,529Z" fill="#759e70" stroke="#759e70"/><path d="M153,452L204,529L199,431Z" fill="#80a87a" stroke="#80a87a"/><path d="M199,431L204,529L265,454Z" fill="#84af82" stroke="#84af82"/><path d="M265,454L204,529L281,514Z" fill="#7dad7f" stroke="#7dad7f"/><path d="M265,454L281,514L342,458Z" fill="#7db58d" stroke="#7db58d"/><path d="M342,458L281,514L342,506Z" fill="#72b18b" stroke="#72b18b"/><path d="M342,458L342,506L389,513Z" fill="#6bb290" stroke="#6bb290"/><path d="M342,458L389,513L400,446Z" fill="#6fb898" stroke="#6fb898"/><path d="M400,446L389,513L442,497Z" fill="#64b599" stroke="#64b599"/><path d="M400,446L442,497L451,466Z" fill="#65b9a0" stroke="#65b9a0"/><path d="M451,466L442,497L516,522Z" fill="#55b39e" stroke="#55b39e"/><path d="M451,466L516,522L513,459Z" fill="#55b7a5" stroke="#55b7a5"/><path d="M513,459L516,522L567,506Z" fill="#47af9d" stroke="#47af9d"/><path d="M513,459L567,506L557,434Z" fill="#4eb5a3" stroke="#4eb5a3"/><path d="M557,434L567,506L618,434Z" fill="#48b2a0" stroke="#48b2a0"/><path d="M618,434L567,506L642,496Z" fill="#39a896" stroke="#39a896"/><path d="M618,434L642,496L685,444Z" fill="#37a895" stroke="#37a895"/><path d="M685,444L642,496L694,511Z" fill="#279e8a" stroke="#279e8a"/><path d="M685,444L694,511L742,436Z" fill="#269e8a" stroke="#269e8a"/><path d="M742,436L694,511L768,518Z" fill="#16947f" stroke="#16947f"/><path d="M742,436L768,518L803,464Z" fill="#17937d" stroke="#17937d"/><path d="M803,464L768,518L814,511Z" fill="#0e8972" stroke="#0e8972"/><path d="M803,464L814,511L859,462Z" fill="#158973" stroke="#158973"/><path d="M859,462L814,511L853,527Z" fill="#0e816a" stroke="#0e816a"/><path d="M859,462L853,527L918,494Z" fill="#107e66" stroke="#107e66"/><path d="M859,462L918,494L935,459Z" fill="#188068" stroke="#188068"/><path d="M935,459L918,494L1007,515Z" fill="#11745b" stroke="#11745b"/><path d="M935,459L1007,515L1005,469Z" fill="#147259" stroke="#147259"/><path d="M1005,469L1007,515L1056,493Z" fill="#10694f" stroke="#10694f"/><path d="M1005,469L1056,493L1031,436Z" fill="#1a6f56" stroke="#1a6f56"/><path d="M-11,502L-25,587L11,568Z" fill="#526d3d" stroke="#526d3d"/><path d="M-11,502L11,568L31,504Z" fill="#597848" stroke="#597848"/><path d="M31,504L11,568L100,584Z" fill="#597848" stroke="#597848"/><path d="M31,504L100,584L110,517Z" fill="#5d8353" stroke="#5d8353"/><path d="M110,517L100,584L148,578Z" fill="#618453" stroke="#618453"/><path d="M110,517L148,578L151,512Z" fill="#638e5e" stroke="#638e5e"/><path d="M151,512L148,578L204,529Z" fill="#669363" stroke="#669363"/><path d="M204,529L148,578L195,587Z" fill="#688f5e" stroke="#688f5e"/><path d="M204,529L195,587L256,568Z" fill="#6c9767" stroke="#6c9767"/><path d="M204,529L256,568L281,514Z" fill="#6fa374" stroke="#6fa374"/><path d="M281,514L256,568L314,566Z" fill="#69a075" stroke="#69a075"/><path d="M281,514L314,566L342,506Z" fill="#67a77f" stroke="#67a77f"/><path d="M342,506L314,566L379,586Z" fill="#5ea17c" stroke="#5ea17c"/><path d="M342,506L379,586L389,513Z" fill="#59a685" stroke="#59a685"/><path d="M389,513L379,586L451,578Z" fill="#52a183" stroke="#52a183"/><path d="M389,513L451,578L442,497Z" fill="#50a98e" stroke="#50a98e"/><path d="M442,497L451,578L516,522Z" fill="#47a993" stroke="#47a993"/><path d="M516,522L451,578L516,551Z" fill="#41a592" stroke="#41a592"/><path d="M516,522L516,551L578,553Z" fill="#37a28f" stroke="#37a28f"/><path d="M516,522L578,553L567,506Z" fill="#36a390" stroke="#36a390"/><path d="M567,506L578,553L642,496Z" fill="#2ea08c" stroke="#2ea08c"/><path d="M642,496L578,553L641,575Z" fill="#229681" stroke="#229681"/><path d="M642,496L641,575L683,552Z" fill="#19917c" stroke="#19917c"/><path d="M642,496L683,552L694,511Z" fill="#1a947f" stroke="#1a947f"/><path d="M694,511L683,552L741,554Z" fill="#0c8a74" stroke="#0c8a74"/><path d="M694,511L741,554L768,518Z" fill="#088973" stroke="#088973"/><path d="M768,518L741,554L797,562Z" fill="#008069" stroke="#008069"/><path d="M768,518L797,562L814,511Z" fill="#038069" stroke="#038069"/><path d="M814,511L797,562L853,527Z" fill="#027b64" stroke="#027b64"/><path d="M853,527L797,562L862,564Z" fill="#00745c" stroke="#00745c"/><path d="M853,527L862,564L918,494Z" fill="#03755c" stroke="#03755c"/><path d="M918,494L862,564L945,574Z" fill="#006c52" stroke="#006c52"/><path d="M918,494L945,574L1007,515Z" fill="#046950" stroke="#046950"/><path d="M1007,515L945,574L1008,566Z" fill="#005f44" stroke="#005f44"/><path d="M1007,515L1008,566L1033,582Z" fill="#005a3e" stroke="#005a3e"/><path d="M1007,515L1033,582L1056,493Z" fill="#035e43" stroke="#035e43"/><path d="M1056,493L1033,582L1066,617Z" fill="#005236" stroke="#005236"/><path d="M-25,587L-27,678L-19,617Z" fill="#515624" stroke="#515624"/><path d="M-25,587L-19,617L11,568Z" fill="#526231" stroke="#526231"/><path d="M11,568L-19,617L34,649Z" fill="#54602e" stroke="#54602e"/><path d="M11,568L34,649L100,584Z" fill="#596b3a" stroke="#596b3a"/><path d="M100,584L34,649L96,641Z" fill="#5c6a38" stroke="#5c6a38"/><path d="M100,584L96,641L141,641Z" fill="#607240" stroke="#607240"/><path d="M100,584L141,641L148,578Z" fill="#627b49" stroke="#627b49"/><path d="M148,578L141,641L195,587Z" fill="#668150" stroke="#668150"/><path d="M195,587L141,641L221,643Z" fill="#68804e" stroke="#68804e"/><path d="M195,587L221,643L256,568Z" fill="#6d8e5d" stroke="#6d8e5d"/><path d="M256,568L221,643L286,646Z" fill="#6f8d5d" stroke="#6f8d5d"/><path d="M256,568L286,646L314,566Z" fill="#699569" stroke="#699569"/><path d="M314,566L286,646L343,627Z" fill="#639067" stroke="#639067"/><path d="M314,566L343,627L379,586Z" fill="#5e9671" stroke="#5e9671"/><path d="M379,586L343,627L375,612Z" fill="#5a936f" stroke="#5a936f"/><path d="M379,586L375,612L451,578Z" fill="#539878" stroke="#539878"/><path d="M451,578L375,612L464,640Z" fill="#4d9477" stroke="#4d9477"/><path d="M451,578L464,640L516,622Z" fill="#45947d" stroke="#45947d"/><path d="M451,578L516,622L516,551Z" fill="#419c88" stroke="#419c88"/><path d="M516,551L516,622L578,553Z" fill="#379985" stroke="#379985"/><path d="M578,553L516,622L567,643Z" fill="#328e79" stroke="#328e79"/><path d="M578,553L567,643L617,616Z" fill="#2a8a74" stroke="#2a8a74"/><path d="M578,553L617,616L641,575Z" fill="#248d77" stroke="#248d77"/><path d="M641,575L617,616L703,624Z" fill="#19816a" stroke="#19816a"/><path d="M641,575L703,624L683,552Z" fill="#13836c" stroke="#13836c"/><path d="M683,552L703,624L741,554Z" fill="#0b8069" stroke="#0b8069"/><path d="M741,554L703,624L734,626Z" fill="#07775f" stroke="#07775f"/><path d="M741,554L734,626L797,562Z" fill="#007860" stroke="#007860"/><path d="M797,562L734,626L808,647Z" fill="#006c53" stroke="#006c53"/><path d="M797,562L808,647L859,610Z" fill="#00684e" stroke="#00684e"/><path d="M797,562L859,610L862,564Z" fill="#006d53" stroke="#006d53"/><path d="M862,564L859,610L945,574Z" fill="#00654a" stroke="#00654a"/><path d="M945,574L859,610L915,649Z" fill="#005a3f" stroke="#005a3f"/><path d="M945,574L915,649L975,613Z" fill="#005539" stroke="#005539"/><path d="M945,574L975,613L1008,566Z" fill="#00583c" stroke="#00583c"/><path d="M1008,566L975,613L1033,582Z" fill="#005236" stroke="#005236"/><path d="M1033,582L975,613L1066,617Z" fill="#004b2e" stroke="#004b2e"/><path d="M-19,617L-27,678L34,649Z" fill="#535421" stroke="#535421"/><path d="M34,649L-27,678L29,675Z" fill="#55521f" stroke="#55521f"/><path d="M34,649L29,675L96,641Z" fill="#595e2b" stroke="#595e2b"/><path d="M96,641L29,675L96,702Z" fill="#5c5d29" stroke="#5c5d29"/><path d="M96,641L96,702L131,707Z" fill="#60612d" stroke="#60612d"/><path d="M96,641L131,707L141,641Z" fill="#616936" stroke="#616936"/><path d="M141,641L131,707L226,675Z" fill="#666e3b" stroke="#666e3b"/><path d="M141,641L226,675L221,643Z" fill="#6a7a48" stroke="#6a7a48"/><path d="M221,643L226,675L277,672Z" fill="#6f804e" stroke="#6f804e"/><path d="M221,643L277,672L286,646Z" fill="#6e8553" stroke="#6e8553"/><path d="M286,646L277,672L332,702Z" fill="#678053" stroke="#678053"/><path d="M286,646L332,702L343,627Z" fill="#62845a" stroke="#62845a"/><path d="M343,627L332,702L372,708Z" fill="#5d7f58" stroke="#5d7f58"/><path d="M343,627L372,708L375,612Z" fill="#5a8863" stroke="#5a8863"/><path d="M375,612L372,708L432,675Z" fill="#558462" stroke="#558462"/><path d="M375,612L432,675L464,640Z" fill="#4f8b6d" stroke="#4f8b6d"/><path d="M464,640L432,675L501,689Z" fill="#47856b" stroke="#47856b"/><path d="M464,640L501,689L516,622Z" fill="#418a74" stroke="#418a74"/><path d="M516,622L501,689L567,643Z" fill="#398670" stroke="#398670"/><path d="M567,643L501,689L570,687Z" fill="#347e67" stroke="#347e67"/><path d="M567,643L570,687L623,705Z" fill="#2a765f" stroke="#2a765f"/><path d="M567,643L623,705L617,616Z" fill="#267a63" stroke="#267a63"/><path d="M617,616L623,705L703,624Z" fill="#1b755e" stroke="#1b755e"/><path d="M703,624L623,705L708,695Z" fill="#136a51" stroke="#136a51"/><path d="M703,624L708,695L734,626Z" fill="#096c53" stroke="#096c53"/><path d="M734,626L708,695L753,677Z" fill="#05654b" stroke="#05654b"/><path d="M734,626L753,677L808,647Z" fill="#00644b" stroke="#00644b"/><path d="M808,647L753,677L822,688Z" fill="#005a40" stroke="#005a40"/><path d="M808,647L822,688L863,679Z" fill="#00553a" stroke="#00553a"/><path d="M808,647L863,679L859,610Z" fill="#005a3f" stroke="#005a3f"/><path d="M859,610L863,679L915,649Z" fill="#005539" stroke="#005539"/><path d="M915,649L863,679L943,701Z" fill="#00492c" stroke="#00492c"/><path d="M915,649L943,701L997,671Z" fill="#004326" stroke="#004326"/><path d="M915,649L997,671L975,613Z" fill="#004a2d" stroke="#004a2d"/><path d="M975,613L997,671L1066,617Z" fill="#004528" stroke="#004528"/><path d="M1066,617L997,671L1038,691Z" fill="#003b1d" stroke="#003b1d"/><path d="M-27,678L96,702L29,675Z" fill="#57521e" stroke="#57521e"/><path d="M131,707L372,708L332,702Z" fill="#6a7747" stroke="#6a7747"/><path d="M131,707L332,702L226,675Z" fill="#6d7542" stroke="#6d7542"/><path d="M226,675L332,702L277,672Z" fill="#6a7d4d" stroke="#6a7d4d"/><path d="M372,708L623,705L501,689Z" fill="#407d66" stroke="#407d66"/><path d="M372,708L501,689L432,675Z" fill="#4d7e60" stroke="#4d7e60"/><path d="M501,689L623,705L570,687Z" fill="#30755e" stroke="#30755e"/><path d="M623,705L943,701L708,695Z" fill="#00583d" stroke="#00583d"/><path d="M708,695L943,701L822,688Z" fill="#005034" stroke="#005034"/><path d="M708,695L822,688L753,677Z" fill="#005b40" stroke="#005b40"/><path d="M822,688L943,701L863,679Z" fill="#004a2d" stroke="#004a2d"/><path d="M943,701L1038,691L997,671Z" fill="#00391b" stroke="#00391b"/></g></svg>