<svg width="1173" height="646" xmlns="http://www.w3.org/2000/svg"><g><path d="M-120,-71L-125,363L-111,23Z" fill="#fffeee" stroke="#fffeee"/><path d="M-120,-71L-111,23L65,-97Z" fill="#fffdfb" stroke="#fffdfb"/><path d="M65,-97L-111,23L86,37Z" fill="#fff9f4" stroke="#fff9f4"/><path d="M65,-97L86,37L279,-81Z" fill="#fff2e5" stroke="#fff2e5"/><path d="M65,-97L279,-81L993,-130Z" fill="#fed0ab" stroke="#fed0ab"/><path d="M279,-81L86,37L241,99Z" fill="#feedda" stroke="#feedda"/><path d="M279,-81L241,99L322,-41Z" fill="#fee5cd" stroke="#fee5cd"/><path d="M279,-81L322,-41L542,-32Z" fill="#fed8b7" stroke="#fed8b7"/><path d="M279,-81L542,-32L644,-72Z" fill="#fecaa4" stroke="#fecaa4"/><path d="M279,-81L644,-72L993,-130Z" fill="#f9b68b" stroke="#f9b68b"/><path d="M322,-41L241,99L327,129Z" fill="#fee3c5" stroke="#fee3c5"/><path d="M322,-41L327,129L506,113Z" fill="#fed8b3" stroke="#fed8b3"/><path d="M322,-41L506,113L542,-32Z" fill="#fecea8" stroke="#fecea8"/><path d="M542,-32L506,113L735,107Z" fill="#fbbc8e" stroke="#fbbc8e"/><path d="M542,-32L735,107L644,-72Z" fill="#f9b68b" stroke="#f9b68b"/><path d="M644,-72L735,107L776,-47Z" fill="#f2ac85" stroke="#f2ac85"/><path d="M644,-72L776,-47L993,-130Z" fill="#e8a280" stroke="#e8a280"/><path d="M776,-47L735,107L768,117Z" fill="#eea77e" stroke="#eea77e"/><path d="M776,-47L768,117L1031,78Z" fill="#dd9e7e" stroke="#dd9e7e"/><path d="M776,-47L1031,78L993,-130Z" fill="#d09a81" stroke="#d09a81"/><path d="M993,-130L1031,78L1087,-107Z" fill="#c09482" stroke="#c09482"/><path d="M993,-130L1087,-107L1249,-122Z" fill="#b58f82" stroke="#b58f82"/><path d="M1087,-107L1031,78L1153,48Z" fill="#b89181" stroke="#b89181"/><path d="M1087,-107L1153,48L1249,-122Z" fill="#ad8c82" stroke="#ad8c82"/><path d="M1249,-122L1153,48L1296,90Z" fill="#a38882" stroke="#a38882"/><path d="M-111,23L-125,363L-100,204Z" fill="#ffedc8" stroke="#ffedc8"/><path d="M-111,23L-100,204L21,205Z" fill="#fffadd" stroke="#fffadd"/><path d="M-111,23L21,205L86,37Z" fill="#fff9eb" stroke="#fff9eb"/><path d="M86,37L21,205L241,99Z" fill="#fff2d4" stroke="#fff2d4"/><path d="M241,99L21,205L244,220Z" fill="#ffe3b3" stroke="#ffe3b3"/><path d="M241,99L244,220L327,129Z" fill="#fee1ad" stroke="#fee1ad"/><path d="M327,129L244,220L407,253Z" fill="#fecb89" stroke="#fecb89"/><path d="M327,129L407,253L504,198Z" fill="#fec37b" stroke="#fec37b"/><path d="M327,129L504,198L506,113Z" fill="#fecb8b" stroke="#fecb8b"/><path d="M506,113L504,198L729,195Z" fill="#fcb46a" stroke="#fcb46a"/><path d="M506,113L729,195L735,107Z" fill="#f8b16c" stroke="#f8b16c"/><path d="M735,107L729,195L768,117Z" fill="#f0a565" stroke="#f0a565"/><path d="M768,117L729,195L845,261Z" fill="#ec934b" stroke="#ec934b"/><path d="M768,117L845,261L1031,78Z" fill="#d9975e" stroke="#d9975e"/><path d="M1031,78L845,261L931,279Z" fill="#cf8446" stroke="#cf8446"/><path d="M1031,78L931,279L1098,200Z" fill="#c3854f" stroke="#c3854f"/><path d="M1031,78L1098,200L1153,48Z" fill="#b88e70" stroke="#b88e70"/><path d="M1153,48L1098,200L1296,90Z" fill="#aa896f" stroke="#aa896f"/><path d="M1296,90L1098,200L1301,241Z" fill="#a37b54" stroke="#a37b54"/><path d="M1296,90L1301,241L1325,624Z" fill="#984f1f" stroke="#984f1f"/><path d="M-100,204L-125,363L21,205Z" fill="#ffdbac" stroke="#ffdbac"/><path d="M21,205L-125,363L19,433Z" fill="#ffc291" stroke="#ffc291"/><path d="M21,205L19,433L191,342Z" fill="#ffbe87" stroke="#ffbe87"/><path d="M21,205L191,342L244,220Z" fill="#ffce94" stroke="#ffce94"/><path d="M244,220L191,342L407,253Z" fill="#febe77" stroke="#febe77"/><path d="M407,253L191,342L417,398Z" fill="#fea559" stroke="#fea559"/><path d="M407,253L417,398L471,401Z" fill="#fe9342" stroke="#fe9342"/><path d="M407,253L471,401L504,198Z" fill="#fea34e" stroke="#fea34e"/><path d="M504,198L471,401L726,332Z" fill="#fc8d35" stroke="#fc8d35"/><path d="M504,198L726,332L729,195Z" fill="#f8953f" stroke="#f8953f"/><path d="M729,195L726,332L845,261Z" fill="#ee812f" stroke="#ee812f"/><path d="M845,261L726,332L833,326Z" fill="#e8711f" stroke="#e8711f"/><path d="M845,261L833,326L931,279Z" fill="#db7224" stroke="#db7224"/><path d="M931,279L833,326L1010,385Z" fill="#d1621a" stroke="#d1621a"/><path d="M931,279L1010,385L1098,200Z" fill="#c46926" stroke="#c46926"/><path d="M1098,200L1010,385L1080,384Z" fill="#bc5c1d" stroke="#bc5c1d"/><path d="M1098,200L1080,384L1268,350Z" fill="#af5a20" stroke="#af5a20"/><path d="M1098,200L1268,350L1301,241Z" fill="#a4642f" stroke="#a4642f"/><path d="M1301,241L1268,350L1325,624Z" fill="#993715" stroke="#993715"/><path d="M-125,363L-121,622L-60,522Z" fill="#e3a091" stroke="#e3a091"/><path d="M-125,363L-60,522L19,433Z" fill="#fca78d" stroke="#fca78d"/><path d="M19,433L-60,522L55,581Z" fill="#e09987" stroke="#e09987"/><path d="M19,433L55,581L274,468Z" fill="#e6967a" stroke="#e6967a"/><path d="M19,433L274,468L191,342Z" fill="#ffa074" stroke="#ffa074"/><path d="M191,342L274,468L417,398Z" fill="#fe965c" stroke="#fe965c"/><path d="M417,398L274,468L379,471Z" fill="#f8844e" stroke="#f8844e"/><path d="M417,398L379,471L471,401Z" fill="#fe8042" stroke="#fe8042"/><path d="M471,401L379,471L551,541Z" fill="#ee733a" stroke="#ee733a"/><path d="M471,401L551,541L616,498Z" fill="#ea672c" stroke="#ea672c"/><path d="M471,401L616,498L726,332Z" fill="#fa6c23" stroke="#fa6c23"/><path d="M726,332L616,498L870,583Z" fill="#e04f15" stroke="#e04f15"/><path d="M726,332L870,583L833,326Z" fill="#e75212" stroke="#e75212"/><path d="M833,326L870,583L931,509Z" fill="#c94213" stroke="#c94213"/><path d="M833,326L931,509L1010,385Z" fill="#d14c13" stroke="#d14c13"/><path d="M1010,385L931,509L1082,515Z" fill="#b53b14" stroke="#b53b14"/><path d="M1010,385L1082,515L1080,384Z" fill="#bd3e14" stroke="#bd3e14"/><path d="M1080,384L1082,515L1268,350Z" fill="#b03d14" stroke="#b03d14"/><path d="M1268,350L1082,515L1246,583Z" fill="#932e14" stroke="#932e14"/><path d="M1268,350L1246,583L1325,624Z" fill="#7a2415" stroke="#7a2415"/><path d="M-60,522L-121,622L55,581Z" fill="#cb948c" stroke="#cb948c"/><path d="M55,581L-121,622L84,734Z" fill="#b48887" stroke="#b48887"/><path d="M55,581L84,734L191,651Z" fill="#b0817b" stroke="#b0817b"/><path d="M55,581L191,651L274,468Z" fill="#cd8871" stroke="#cd8871"/><path d="M274,468L191,651L383,722Z" fill="#bd775e" stroke="#bd775e"/><path d="M274,468L383,722L379,471Z" fill="#d17751" stroke="#d17751"/><path d="M379,471L383,722L466,663Z" fill="#bc6644" stroke="#bc6644"/><path d="M379,471L466,663L551,541Z" fill="#cf673a" stroke="#cf673a"/><path d="M551,541L466,663L624,774Z" fill="#ad502c" stroke="#ad502c"/><path d="M551,541L624,774L720,654Z" fill="#aa441e" stroke="#aa441e"/><path d="M551,541L720,654L616,498Z" fill="#c8501f" stroke="#c8501f"/><path d="M616,498L720,654L870,583Z" fill="#bb4115" stroke="#bb4115"/><path d="M870,583L720,654L778,728Z" fill="#9c3112" stroke="#9c3112"/><path d="M870,583L778,728L977,696Z" fill="#872913" stroke="#872913"/><path d="M870,583L977,696L931,509Z" fill="#962f13" stroke="#962f13"/><path d="M931,509L977,696L1082,515Z" fill="#932d14" stroke="#932d14"/><path d="M1082,515L977,696L1184,641Z" fill="#782314" stroke="#782314"/><path d="M1082,515L1184,641L1246,583Z" fill="#762314" stroke="#762314"/><path d="M1246,583L1184,641L1325,624Z" fill="#5e1a15" stroke="#5e1a15"/><path d="M-121,622L-81,850L84,734Z" fill="#97808c" stroke="#97808c"/><path d="M84,734L-81,850L94,855Z" fill="#807984" stroke="#807984"/><path d="M84,734L94,855L186,794Z" fill="#83747a" stroke="#83747a"/><path d="M84,734L186,794L191,651Z" fill="#997575" stroke="#997575"/><path d="M191,651L186,794L383,722Z" fill="#9a6d64" stroke="#9a6d64"/><path d="M383,722L186,794L419,814Z" fill="#885f54" stroke="#885f54"/><path d="M383,722L419,814L466,663Z" fill="#965642" stroke="#965642"/><path d="M466,663L419,814L510,830Z" fill="#8a4e3a" stroke="#8a4e3a"/><path d="M466,663L510,830L624,774Z" fill="#8e452e" stroke="#8e452e"/><path d="M720,654L624,774L778,728Z" fill="#903317" stroke="#903317"/><path d="M778,728L624,774L838,850Z" fill="#772915" stroke="#772915"/><path d="M778,728L838,850L977,696Z" fill="#6c1f13" stroke="#6c1f13"/><path d="M977,696L838,850L990,849Z" fill="#521a13" stroke="#521a13"/><path d="M977,696L990,849L1136,862Z" fill="#421414" stroke="#421414"/><path d="M977,696L1136,862L1184,641Z" fill="#4f1414" stroke="#4f1414"/><path d="M1184,641L1136,862L1305,876Z" fill="#2b0a14" stroke="#2b0a14"/><path d="M1184,641L1305,876L1325,624Z" fill="#3c0c15" stroke="#3c0c15"/><path d="M94,855L1305,876L838,850Z" fill="#702915" stroke="#702915"/><path d="M94,855L838,850L510,830Z" fill="#7f4c37" stroke="#7f4c37"/><path d="M94,855L510,830L419,814Z" fill="#7f5e52" stroke="#7f5e52"/><path d="M94,855L419,814L186,794Z" fill="#7f6b67" stroke="#7f6b67"/><path d="M510,830L838,850L624,774Z" fill="#78341b" stroke="#78341b"/><path d="M838,850L1305,876L1136,862Z" fill="#381114" stroke="#381114"/><path d="M838,850L1136,862L990,849Z" fill="#481714" stroke="#481714"/></g></svg>