<?xml version="1.0" ?><!DOCTYPE svg  PUBLIC '-//W3C//DTD SVG 1.1//EN'  'http://www.w3.org/Graphics/SVG/1.1/DTD/svg11.dtd'><svg enable-background="new 0 0 512 512" height="512px" id="Layer_1" version="1.1" viewBox="0 0 512 512" width="512px" xml:space="preserve" xmlns="http://www.w3.org/2000/svg" xmlns:xlink="http://www.w3.org/1999/xlink"><g><polyline fill="#E15855" points="2.402,512 514.402,512 514.402,0 2.402,0 2.402,512  "/><polyline fill="#010101" opacity="0.191" points="381.402,168 179.402,245 153.402,330 351.402,512 514.402,512 514.402,310    381.402,168  "/><polyline fill="#FFFFFF" points="257.007,125 133.402,168.499 152.934,330.44 257.137,387.712 361.876,329.664 381.402,167.729    257.007,125  "/><polyline fill="#CA403A" points="369.073,177.089 256.718,138.773 256.718,374.028 350.876,321.918 369.073,177.089  "/><polyline fill="#E15855" points="147.272,177.778 164.009,322.609 256.716,374.028 256.716,138.769 147.272,177.778  "/><path d="M284.655,256.729l-27.733-54.902l-22.748,53.958h22.542L284.655,256.729 M287.645,264.011l-30.927,14.463   H224.12L208.797,316.8l-28.502,0.528l76.423-170.012L287.645,264.011z" fill="#FFFFFF"/><polyline fill="#FFFFFF" points="256.716,147.316 256.921,201.827 282.733,255.827 256.774,255.827 256.716,278.44 292.61,278.474    309.388,317.333 336.657,317.839 256.716,147.316  "/></g></svg>